<svg xmlns="http://www.w3.org/2000/svg" viewBox="0 0 500 500"><g id="freepik--background-complete--inject-73"><path d="M368.09,424.58c-1.38-1.18-4.45-4.92-2.08-9.27.87-1.6,2.71-2.39,4.38-3.09a18.15,18.15,0,0,0,4.81-2.49c2.6-2.22,3.32-5.9,5.05-8.86,2-3.39,5.69-5.94,9.61-5.76,4.48.2,8.22,3.87,9.92,8s1.75,8.81,1.79,13.32c0,2.5-.09,5.31-1.92,7s-4.23,1.57-6.52,1.5l-24.51-.75" style="fill:#f5f5f5"></path><path d="M415,357.19H350.51l11.61,69.23a7.74,7.74,0,0,0,5.5,6.16l.23.06c.19.05.38.12.57.15a8.21,8.21,0,0,0,1.31.15V433l.32-.05h28.72a8.22,8.22,0,0,0,1.58-.16,7.76,7.76,0,0,0,6.52-6.77l5.6-47.69.25-1.9h0l2.22-18.89ZM402.8,401.35h-6.61l.66-20.09h7.67Zm2.36-20.09h6.33l-2.36,20.09h-5.69Zm-18.9,42.36-.4-17.45h9.53l-.58,17.45ZM376,406.17h9.25l.4,17.45h-8.3Zm.71,17.45h-7.76c-.73-4.71-1.69-10.84-2.73-17.45h9.14Zm-1.09-22.27L374,381.26h10.62l.46,20.09Zm10.16,0-.46-20.09h10.92l-.66,20.09Zm-.57-24.91-.43-18.6H397l-.62,18.6Zm-.64,0H373.66l-1.45-18.6h11.9Zm-11.52,0H361.5c-.4-2.57-.79-5-1.14-7.19-1.2-7.52-1.65-10.35-1.9-11.41h13.11Zm.37,4.82L375,401.35h-9.52c-.32-2-.64-4.1-1-6.16-.74-4.75-1.49-9.49-2.19-13.93Zm-8.61,20.09h-6.21l-3.37-20.09h6.42C362.6,387.47,363.69,394.38,364.78,401.35Zm.76,4.82c.95,6,1.88,12,2.74,17.45h-6l-2.93-17.45Zm29.91,17.45.58-17.45h6.36l-1.49,17.45ZM397,376.44l.62-18.6h8.89l-1.59,18.6Zm-39.16-18.6c.25,1.34,1.43,8.66,3,18.6h-6.47l-3.12-18.6Zm48.67,65.78h-5L403,406.17h5.54Zm5.54-47.18h-6.49l1.59-18.6h7.08Z" style="fill:#e0e0e0"></path><rect x="99.68" y="184.08" width="33.65" height="33.65" style="fill:#ebebeb"></rect><rect x="99.68" y="222.68" width="33.65" height="33.65" style="fill:#ebebeb"></rect><rect x="138.61" y="184.08" width="33.65" height="33.65" style="fill:#ebebeb"></rect><rect x="138.61" y="222.68" width="33.65" height="33.65" style="fill:#ebebeb"></rect><rect x="176.5" y="184.08" width="33.65" height="33.65" style="fill:#ebebeb"></rect><rect x="176.5" y="222.68" width="33.65" height="33.65" style="fill:#ebebeb"></rect><rect x="215.43" y="184.08" width="33.65" height="33.65" style="fill:#ebebeb"></rect><rect x="215.43" y="222.68" width="33.65" height="33.65" style="fill:#ebebeb"></rect><rect x="253.32" y="184.08" width="33.65" height="33.65" style="fill:#ebebeb"></rect><rect x="253.32" y="222.68" width="33.65" height="33.65" style="fill:#ebebeb"></rect><rect x="292.24" y="184.08" width="33.65" height="33.65" style="fill:#ebebeb"></rect><rect x="292.24" y="222.68" width="33.65" height="33.65" style="fill:#ebebeb"></rect><rect x="330.13" y="184.08" width="33.65" height="33.65" style="fill:#ebebeb"></rect><rect x="330.13" y="222.68" width="33.65" height="33.65" style="fill:#ebebeb"></rect><rect x="369.06" y="184.08" width="33.65" height="33.65" style="fill:#ebebeb"></rect><rect x="369.06" y="222.68" width="33.65" height="33.65" style="fill:#ebebeb"></rect><rect x="406.95" y="184.08" width="33.65" height="33.65" style="fill:#ebebeb"></rect><rect x="406.95" y="222.68" width="33.65" height="33.65" style="fill:#ebebeb"></rect><rect x="445.88" y="184.08" width="33.65" height="33.65" style="fill:#ebebeb"></rect><rect x="445.88" y="222.68" width="33.65" height="33.65" style="fill:#ebebeb"></rect><rect x="99.68" y="259.53" width="33.65" height="33.65" style="fill:#ebebeb"></rect><rect x="99.68" y="298.12" width="33.65" height="33.65" style="fill:#ebebeb"></rect><rect x="138.61" y="259.53" width="33.65" height="33.65" style="fill:#ebebeb"></rect><rect x="138.61" y="298.12" width="33.65" height="33.65" style="fill:#ebebeb"></rect><rect x="176.5" y="259.53" width="33.65" height="33.65" style="fill:#ebebeb"></rect><rect x="176.5" y="298.12" width="33.65" height="33.65" style="fill:#ebebeb"></rect><rect x="215.43" y="259.53" width="33.65" height="33.65" style="fill:#ebebeb"></rect><rect x="215.43" y="298.12" width="33.65" height="33.65" style="fill:#ebebeb"></rect><rect x="253.32" y="259.53" width="33.65" height="33.65" style="fill:#ebebeb"></rect><rect x="253.32" y="298.12" width="33.65" height="33.65" style="fill:#ebebeb"></rect><rect x="292.24" y="259.53" width="33.65" height="33.65" style="fill:#ebebeb"></rect><rect x="292.24" y="298.12" width="33.65" height="33.65" style="fill:#ebebeb"></rect><rect x="330.13" y="259.53" width="33.65" height="33.65" style="fill:#ebebeb"></rect><rect x="330.13" y="298.12" width="33.65" height="33.65" style="fill:#ebebeb"></rect><rect x="369.06" y="259.53" width="33.65" height="33.65" style="fill:#ebebeb"></rect><rect x="369.06" y="298.12" width="33.65" height="33.65" style="fill:#ebebeb"></rect><rect x="406.95" y="259.53" width="33.65" height="33.65" style="fill:#ebebeb"></rect><rect x="406.95" y="298.12" width="33.65" height="33.65" style="fill:#ebebeb"></rect><rect x="445.88" y="259.53" width="33.65" height="33.65" style="fill:#ebebeb"></rect><rect x="445.88" y="298.12" width="33.65" height="33.65" style="fill:#ebebeb"></rect><rect x="22.47" y="184.08" width="33.65" height="33.65" style="fill:#ebebeb"></rect><rect x="22.47" y="222.68" width="33.65" height="33.65" style="fill:#ebebeb"></rect><rect x="61.4" y="184.08" width="33.65" height="33.65" style="fill:#ebebeb"></rect><rect x="61.4" y="222.68" width="33.65" height="33.65" style="fill:#ebebeb"></rect><rect x="22.47" y="259.53" width="33.65" height="33.65" style="fill:#ebebeb"></rect><rect x="22.47" y="298.12" width="33.65" height="33.65" style="fill:#ebebeb"></rect><rect x="61.4" y="259.53" width="33.65" height="33.65" style="fill:#ebebeb"></rect><rect x="61.4" y="298.12" width="33.65" height="33.65" style="fill:#ebebeb"></rect><rect x="51.82" y="20.89" width="98.47" height="142.73" transform="translate(202.12 184.51) rotate(180)" style="fill:#e0e0e0"></rect><rect x="56.76" y="20.89" width="98.47" height="142.73" transform="translate(211.99 184.51) rotate(180)" style="fill:#f5f5f5"></rect><rect x="68.99" y="36.35" width="74" height="111.81" style="fill:#fff"></rect><path d="M69,148.16s0-.19,0-.54,0-.9,0-1.59c0-1.4,0-3.46,0-6.13,0-5.36,0-13.17.07-23,0-19.72.07-47.64.12-80.52L69,36.6l74,0h0l-.26-.27c0,42.18,0,81.07.05,111.81L143,148l-53.86.11-14.88.06-3.91,0-1.35,0,1.31,0,3.86,0,14.84,0,54,.12h.22v-.22c0-30.74,0-69.63,0-111.81v-.27H143l-74,0h-.24v.25c0,32.94.09,60.92.12,80.68,0,9.84,0,17.63.06,23,0,2.65,0,4.69,0,6.09,0,.67,0,1.19,0,1.56S69,148.16,69,148.16Z" style="fill:#e0e0e0"></path><path d="M56.48,20.89a16.28,16.28,0,0,0,1.76,2.55C59.38,25,61,27.05,62.86,29.3s3.58,4.24,4.86,5.66a16.55,16.55,0,0,0,2.17,2.21A17.9,17.9,0,0,0,68,34.71L63.27,29l-4.74-5.75A19.32,19.32,0,0,0,56.48,20.89Z" style="fill:#e0e0e0"></path><path d="M68.61,147.8A91.66,91.66,0,0,1,55.71,164" style="fill:#fff"></path><path d="M55.71,164a16.2,16.2,0,0,0,2.25-2,72.62,72.62,0,0,0,4.87-5.49,71.5,71.5,0,0,0,4.28-6,14.55,14.55,0,0,0,1.5-2.65,20.88,20.88,0,0,0-1.81,2.44c-1.09,1.52-2.61,3.6-4.39,5.83s-3.48,4.18-4.73,5.57A18.15,18.15,0,0,0,55.71,164Z" style="fill:#e0e0e0"></path><path d="M155.24,163.51l-12.9-15.91" style="fill:#fff"></path><path d="M142.34,147.6a98.94,98.94,0,0,0,6.25,8.12,99.56,99.56,0,0,0,6.65,7.79,98.38,98.38,0,0,0-6.24-8.13A94.6,94.6,0,0,0,142.34,147.6Z" style="fill:#e0e0e0"></path><path d="M155.23,20.89A88,88,0,0,0,149,28.38a88.33,88.33,0,0,0-5.84,7.81,91,91,0,0,0,6.26-7.48A91.78,91.78,0,0,0,155.23,20.89Z" style="fill:#e0e0e0"></path><path d="M142.73,53.19c-5.13-5.54-14.82-8-21.77-5.1a19,19,0,0,0-11.27,18c-7,1.17-12.47,7.53-14.11,14.48s0,14.32,2.76,20.9c1.14,2.68,2.49,5.31,3,8.17s.11,6.1-1.91,8.2c-2.4,2.5-6.25,2.73-9.46,4-4.71,1.93-8.07,6.28-9.94,11s-2.44,9.84-3,14.89h65.27Z" style="fill:#ebebeb"></path><path d="M139,133.83c.06-.06-14.28-16.12-32-35.87S74.71,62.25,74.64,62.31s14.27,16.13,32,35.88S138.91,133.89,139,133.83Z" style="fill:#fafafa"></path><path d="M81.47,58.49c-.07.07,9,10.13,20.18,22.48s20.37,22.32,20.44,22.26-9-10.13-20.18-22.48S81.54,58.43,81.47,58.49Z" style="fill:#fafafa"></path><path d="M85.61,88.9a2.6,2.6,0,0,0,.34.38l1,1,3.81,3.82c3.2,3.24,7.59,7.75,12.32,12.84S112,116.8,115,120.24c1.47,1.71,2.67,3.09,3.53,4.08l1,1.11a3.44,3.44,0,0,0,.35.37,2.2,2.2,0,0,0-.3-.41l-.91-1.15c-.8-1-2-2.41-3.45-4.15-2.94-3.49-7.08-8.23-11.81-13.33S94.21,97.17,91,94c-1.63-1.59-3-2.87-3.89-3.75l-1.07-1A3.24,3.24,0,0,0,85.61,88.9Z" style="fill:#fafafa"></path></g><g id="freepik--Floor--inject-73"><path d="M466.69,433c0,.14-96.58.26-215.68.26s-215.7-.12-215.7-.26,96.56-.26,215.7-.26S466.69,432.86,466.69,433Z" style="fill:#263238"></path></g><g id="freepik--Plant--inject-73"><path d="M85.7,395.41s-19.63-22.59-27-45.17-3.89-20-3.89-20,10,21.94,17.59,32.54,21.1,26.15,21.1,26.15Z" style="fill:#455a64"></path><path d="M89.61,333.76a1.14,1.14,0,0,0-2.13.73c1.2,7.93,3.78,26.55,3.68,38.63-.13,15.68,0,21.75,0,21.75h8.17s-1.45-32.43-3.3-42.32C94.75,345.62,92,337.92,89.61,333.76Z" style="fill:#455a64"></path><path d="M94.06,392.23a86.69,86.69,0,0,0,6.73-24.39c.67-5.77-.53-13.58-2.32-24a64.86,64.86,0,0,1-1-11.55,2,2,0,0,1,3.66-.91c1,1.76,3.84,7.77,4.56,11.54,2,10.28,4.22,15.42,2.51,25.18s-8,24.78-8,24.78Z" style="fill:#455a64"></path><path d="M101.42,392.89s21.55-46.31,23-53.18,6.57-22.7,7.17-21.8,1.49,9.26-2.39,18.82-20.46,57.57-20.46,57.57h-7.36" style="fill:#455a64"></path><path d="M91.7,390.82a4.86,4.86,0,0,1-.6-.42c-.38-.29-1-.69-1.67-1.27A77.22,77.22,0,0,1,83.64,384,97,97,0,0,1,68,364a131.73,131.73,0,0,1-10.68-23.11c-1.08-3.08-1.87-5.6-2.38-7.35-.27-.87-.45-1.55-.58-2a3.6,3.6,0,0,1-.16-.71,5.44,5.44,0,0,1,.25.69c.17.49.38,1.16.66,2,.56,1.73,1.4,4.23,2.52,7.29a140.56,140.56,0,0,0,10.76,23,101.7,101.7,0,0,0,15.47,20.06c2.3,2.3,4.28,4,5.67,5.21.69.6,1.25,1,1.62,1.34A5.1,5.1,0,0,1,91.7,390.82Z" style="fill:#263238"></path><path d="M94.06,368.6a7.77,7.77,0,0,1-.19-1.36c-.11-1-.24-2.2-.4-3.71-.34-3.13-.87-7.45-1.64-12.2s-1.61-9-2.27-12.1c-.32-1.48-.58-2.7-.78-3.65a7.89,7.89,0,0,1-.25-1.35,7.1,7.1,0,0,1,.42,1.31c.24.85.56,2.09.93,3.62.74,3.07,1.64,7.34,2.41,12.1s1.24,9.09,1.5,12.24c.13,1.57.22,2.85.26,3.73A7.57,7.57,0,0,1,94.06,368.6Z" style="fill:#263238"></path><path d="M99.11,331a3.29,3.29,0,0,1,.25.59c.17.43.38,1,.65,1.72s.61,1.66.92,2.75.74,2.32,1,3.71c.17.7.35,1.42.53,2.18s.31,1.56.48,2.38c.35,1.65.57,3.43.83,5.3a86,86,0,0,1,.51,12.27,85.46,85.46,0,0,1-1.39,12.21c-.39,1.85-.74,3.61-1.21,5.22-.22.81-.41,1.6-.64,2.35l-.69,2.13c-.41,1.37-.91,2.56-1.31,3.62s-.78,2-1.12,2.69l-.77,1.67a5,5,0,0,1-.29.57,2.89,2.89,0,0,1,.21-.61c.17-.43.4-1,.69-1.7s.68-1.64,1-2.71.85-2.26,1.24-3.63l.66-2.13c.22-.74.4-1.53.61-2.34.45-1.61.78-3.37,1.16-5.21a87.78,87.78,0,0,0,1.35-12.14,90,90,0,0,0-.47-12.21c-.25-1.86-.45-3.64-.79-5.28-.15-.82-.27-1.62-.44-2.38s-.35-1.48-.51-2.17c-.29-1.4-.68-2.62-1-3.71s-.59-2-.85-2.78-.42-1.3-.57-1.74A2.91,2.91,0,0,1,99.11,331Z" style="fill:#263238"></path><path d="M131.38,318.84s0,.07,0,.21-.06.36-.1.6c-.09.52-.21,1.31-.42,2.3-.42,2-1.11,4.86-2.19,8.34s-2.55,7.56-4.29,12-3.76,9.36-5.67,14.56-3.44,10.26-4.85,14.86-2.71,8.73-4,12.14a82,82,0,0,1-3.4,7.92c-.45.92-.84,1.6-1.1,2.07l-.3.53c-.07.12-.11.18-.12.17a1.24,1.24,0,0,1,.08-.19c.07-.15.15-.33.26-.55.23-.49.6-1.18,1-2.11.87-1.83,2-4.53,3.26-8s2.52-7.55,3.89-12.15,2.88-9.69,4.82-14.89,3.95-10.1,5.71-14.57,3.27-8.52,4.38-12,1.85-6.3,2.32-8.28c.24-1,.39-1.76.51-2.28.06-.24.1-.43.14-.59A.94.94,0,0,1,131.38,318.84Z" style="fill:#263238"></path><path d="M64.94,308.61a1.86,1.86,0,0,0-3.06,1.89,53,53,0,0,0,2.71,7c3,6.3,11.67,28.89,15.74,41.29s9.81,35.55,9.81,35.55l8.7-1.41s-8-38-15.73-51.73C76.86,330.15,70.61,314.24,64.94,308.61Z" style="fill:#455a64"></path><path d="M82.71,366.51a5.26,5.26,0,0,1,.45,1c.25.69.6,1.68,1,2.92.8,2.48,1.78,5.95,2.77,9.8s1.8,7.36,2.38,9.9c.26,1.2.48,2.21.65,3a5,5,0,0,1,.18,1.12,5.8,5.8,0,0,1-.35-1.08l-.8-3c-.66-2.61-1.54-6.05-2.51-9.86s-1.91-7.31-2.63-9.81l-.86-3A5.31,5.31,0,0,1,82.71,366.51Z" style="fill:#263238"></path><path d="M94.51,393.59s0-.07-.05-.23-.06-.4-.1-.68c-.09-.6-.17-1.5-.35-2.64-.32-2.28-.89-5.57-1.83-9.59a137.15,137.15,0,0,0-4.07-13.9c-1.78-5.15-4-10.72-6.56-16.48C76.44,338.56,71.32,328.35,68,320.8c-1.7-3.77-3-6.84-3.88-9-.44-1.06-.76-1.9-1-2.47-.1-.26-.18-.48-.24-.65a.9.9,0,0,1-.07-.23,1.22,1.22,0,0,1,.11.21c.08.17.17.38.28.63l1.06,2.44c.92,2.12,2.28,5.18,4,8.92,3.43,7.51,8.59,17.69,13.71,29.22,2.54,5.77,4.78,11.36,6.54,16.53a131.46,131.46,0,0,1,4,14A93.92,93.92,0,0,1,94.18,390c.16,1.15.21,2,.28,2.65,0,.28,0,.51.05.69A.68.68,0,0,1,94.51,393.59Z" style="fill:#263238"></path><path d="M98.84,392.89a10.27,10.27,0,0,1-.29-1.46c-.18-1-.4-2.37-.68-4-.6-3.37-1.52-8-2.83-13.06s-2.77-9.56-3.9-12.79c-.56-1.56-1-2.85-1.36-3.82a8.39,8.39,0,0,1-.46-1.42,9.63,9.63,0,0,1,.63,1.35c.37.89.89,2.17,1.5,3.78a127.77,127.77,0,0,1,4,12.78,133.68,133.68,0,0,1,2.71,13.13c.25,1.69.44,3.07.53,4A9.13,9.13,0,0,1,98.84,392.89Z" style="fill:#263238"></path><rect x="82.74" y="391.64" width="33.95" height="41.37" style="fill:#2058F2"></rect><g style="opacity:0.30000000000000004"><rect x="82.74" y="391.64" width="33.95" height="41.37"></rect></g><rect x="75.74" y="391.64" width="30.12" height="41.37" style="fill:#2058F2"></rect></g><g id="freepik--towel-rack--inject-73"><path d="M361.6,152.34v122H437v-122Z" style="fill:#2058F2"></path><g style="opacity:0.30000000000000004"><path d="M361.6,152.34v122H437v-122Z"></path></g><rect x="338.47" y="37.15" width="4.75" height="209.63" rx="1.34" style="fill:#455a64"></rect><rect x="447.55" y="37.15" width="4.75" height="209.63" rx="1.34" style="fill:#455a64"></rect><rect x="340.85" y="57" width="109.08" height="3.75" style="fill:#455a64"></rect><rect x="340.85" y="89.75" width="109.08" height="3.75" style="fill:#455a64"></rect><rect x="340.85" y="122.5" width="109.08" height="3.75" style="fill:#455a64"></rect><rect x="340.85" y="155.25" width="109.08" height="3.75" style="fill:#455a64"></rect><rect x="340.85" y="188" width="109.08" height="3.75" style="fill:#455a64"></rect><rect x="340.85" y="220.75" width="109.08" height="3.75" style="fill:#455a64"></rect><path d="M355,152.34V253.16h75.4V152.34Z" style="fill:#2058F2"></path><path d="M365.84,251.68c-.16-.08.1-.92.57-1.88s1-1.66,1.16-1.58-.1.92-.57,1.87S366,251.76,365.84,251.68Z" style="fill:#263238"></path><path d="M370.82,250.88c-.18,0-.21-.7-.07-1.5s.39-1.42.57-1.39.21.71.07,1.5S371,250.91,370.82,250.88Z" style="fill:#263238"></path><path d="M374.73,251.14c-.17.06-.6-.78-1.17-1.77s-1.07-1.78-.93-1.9.9.52,1.5,1.58S374.9,251.09,374.73,251.14Z" style="fill:#263238"></path><path d="M397.75,197.9c-.17,0-.6-1-.73-2.45s.1-2.56.28-2.55a7.31,7.31,0,0,1,.37,2.49C397.79,196.75,397.93,197.86,397.75,197.9Z" style="fill:#263238"></path><path d="M400.71,196.31c-.18,0-.45-.89-.6-2.05s-.14-2.12,0-2.14.45.9.61,2S400.89,196.29,400.71,196.31Z" style="fill:#263238"></path><path d="M404.89,195.27c-.16.06-.53-.47-.82-1.19s-.39-1.37-.22-1.44.53.47.82,1.19S405.06,195.2,404.89,195.27Z" style="fill:#263238"></path><path d="M407.56,227c-.18-.05-.15-.79.06-1.66s.51-1.54.69-1.5.15.78-.06,1.65S407.73,227.06,407.56,227Z" style="fill:#263238"></path><path d="M412.78,226.74c-.15.09-.66-.52-.9-1.44s-.09-1.71.09-1.7.32.7.54,1.53S412.94,226.65,412.78,226.74Z" style="fill:#263238"></path><path d="M416.7,227c-.16.08-.58-.42-1.13-1s-1-1-1-1.14.8,0,1.42.68S416.86,226.93,416.7,227Z" style="fill:#263238"></path><path d="M368.94,169.54c-.16-.09.18-1,.48-2.11s.44-2.07.63-2.07.32,1,0,2.24S369.09,169.63,368.94,169.54Z" style="fill:#263238"></path><path d="M372.11,169c-.18,0-.19-.9.2-1.88s1-1.63,1.11-1.53-.16.85-.51,1.76S372.29,169.06,372.11,169Z" style="fill:#263238"></path><path d="M375.26,169.56c-.17.05-.51-.57-.58-1.41s.14-1.5.31-1.48.26.66.33,1.42S375.43,169.5,375.26,169.56Z" style="fill:#263238"></path><path d="M409.36,254.29c-.18,0-.33-.65-.33-1.44s.15-1.45.33-1.45.33.65.33,1.45S409.54,254.29,409.36,254.29Z" style="fill:#263238"></path><path d="M412.09,255.87c-.18,0-.38-.8-.45-1.82s0-1.85.2-1.87.38.81.45,1.83S412.27,255.86,412.09,255.87Z" style="fill:#263238"></path><path d="M417.31,256.88c-.17.06-.62-.76-1-1.84s-.56-2-.39-2.06.62.76,1,1.84S417.48,256.82,417.31,256.88Z" style="fill:#263238"></path><path d="M402.35,150.91c.17-.06.59.72.93,1.74s.5,1.89.33,1.95-.59-.73-.94-1.74S402.18,151,402.35,150.91Z" style="fill:#263238"></path><path d="M405.6,152.23c.18,0,.15,1,.11,2.24s-.08,2.21-.26,2.23-.43-1-.39-2.25S405.42,152.19,405.6,152.23Z" style="fill:#263238"></path><path d="M410.24,150.7c.17.05-.07,1.26-.54,2.7s-1,2.56-1.15,2.5.07-1.26.53-2.7S410.07,150.64,410.24,150.7Z" style="fill:#263238"></path></g><g id="freepik--Character--inject-73"><polygon points="251.38 445.06 288.1 476.85 287.56 482.88 192.22 486.92 171.95 451.18 171.78 445.26 251.38 445.06" style="fill:#2058F2"></polygon><g style="opacity:0.30000000000000004"><polygon points="193.63 481.42 288.1 476.85 287.56 482.88 192.22 486.92 171.95 451.18 171.78 445.26 193.63 481.42"></polygon></g><path d="M251.39,471.84l-6.84-6.12-23.46.86-2.41,7.14C231.5,475.85,241.41,475.32,251.39,471.84Z" style="fill:#fff"></path><path d="M251.39,471.84s-.19.08-.59.24-1,.41-1.82.64a51.16,51.16,0,0,1-6.84,1.68,57.75,57.75,0,0,1-10.5.8,86.08,86.08,0,0,1-13-1.23l-.3-.05.1-.29c.36-1.06.74-2.19,1.12-3.34s.86-2.55,1.28-3.79l.06-.17h.18l23.46-.77h.07l0,0,5,4.63,1.3,1.21.42.41a4,4,0,0,1-.52-.42l-1.39-1.19-5-4.38.12,0-23.45.95.24-.18c-.42,1.25-.85,2.51-1.28,3.8s-.77,2.27-1.13,3.34l-.2-.34a89.67,89.67,0,0,0,12.91,1.28,61.07,61.07,0,0,0,10.45-.69,56.8,56.8,0,0,0,6.83-1.51c.81-.22,1.36-.4,1.8-.51Z" style="fill:#263238"></path><path d="M235.2,473.9a23,23,0,0,1-.87-6.8,22.16,22.16,0,0,1,.87,6.8Z" style="fill:#263238"></path><path d="M239.07,470.67c-.12.07-.67-.66-1.22-1.64s-.89-1.83-.77-1.9.68.67,1.22,1.65S239.2,470.6,239.07,470.67Z" style="fill:#263238"></path><path d="M242.48,469.08c-.1.11-.54-.12-1-.5s-.74-.79-.64-.9.53.12,1,.5S242.57,469,242.48,469.08Z" style="fill:#263238"></path><path d="M230,471.36c-.14,0-.23-.87-.06-1.92s.52-1.83.66-1.79,0,.87-.14,1.88S230.19,471.36,230,471.36Z" style="fill:#263238"></path><path d="M225.76,470.19c-.13-.07.07-.67.44-1.34s.77-1.16.9-1.09-.07.67-.44,1.34S225.88,470.26,225.76,470.19Z" style="fill:#263238"></path><path d="M220,433l-2.61,13.77-1.55,5.74c-.17,2.59,1.31,5,3.91,5.07l31,.05a2.12,2.12,0,0,0,1.4-3.71,8.89,8.89,0,0,0-3.31-1.68c-5.75-1.71-15.34-4.25-15.34-4.25L236.08,434Z" style="fill:#ffbf9d"></path><path d="M258.79,210s9.8,11.27,10.76,47.75c.57,22-13.43,86.21-15.9,100.63-1.68,9.82-18.89,88.74-18.89,88.74H217s11.38-99.52,11-109.89-4.15-65.52-4.15-65.52L218.4,229.8Z" style="fill:#263238"></path><path d="M201,439.89l-.49,7.81-1.08,4.14c-.72,2.75-.3,4.34,1.23,7,0,0,7.39,13.18,9.4,14.64,2.65,1.93,12.79,4.06,12.57.79s-8.77-25.92-8.77-25.92l2.22-8.53Z" style="fill:#ffbf9d"></path><path d="M177.76,219.85c1.24.41,44.49,7.87,44.49,7.87s14.74,113.56,16,128.48-22.37,90.89-22.37,90.89H199.69s-2-50.18,1.29-65.53,3.32-19.07,1.25-28.61-23.38-55.18-28.77-80.47S177.76,219.85,177.76,219.85Z" style="fill:#263238"></path><path d="M226,257.72s0,.17,0,.49.09.84.16,1.46c.16,1.3.38,3.18.66,5.58.61,4.88,1.47,11.88,2.54,20.53,2.18,17.34,5.2,41.26,8.52,67.68a52.21,52.21,0,0,1-.63,9.78c-.45,3.2-1,6.35-1.61,9.43-1.21,6.15-2.58,12.06-4,17.66-2.76,11.21-5.53,21.23-7.91,29.63s-4.39,15.17-5.78,19.85c-.69,2.32-1.23,4.13-1.61,5.39-.17.6-.31,1.06-.41,1.4s-.12.49-.12.49.07-.16.18-.47.26-.8.46-1.39l1.7-5.35c1.46-4.67,3.53-11.42,6-19.81s5.24-18.41,8-29.62c1.39-5.6,2.77-11.51,4-17.68.62-3.08,1.18-6.24,1.62-9.46a51.35,51.35,0,0,0,.64-9.89c-3.27-26.47-6.44-50.36-8.68-67.69-1.14-8.64-2.07-15.64-2.71-20.5l-.77-5.58-.21-1.44C226,257.88,226,257.72,226,257.72Z" style="fill:#455a64"></path><path d="M222.42,251.8c-.06.07-.88-.63-2.33-1.57a24.27,24.27,0,0,0-12.71-3.87c-1.73,0-2.8.09-2.81,0a2.16,2.16,0,0,1,.74-.19,14.67,14.67,0,0,1,2.07-.19,21.33,21.33,0,0,1,12.92,3.94,13.69,13.69,0,0,1,1.61,1.31C222.26,251.58,222.45,251.77,222.42,251.8Z" style="fill:#455a64"></path><path d="M244.8,237.47a2.92,2.92,0,0,1-.26.82c-.2.51-.53,1.24-1,2.12a35.11,35.11,0,0,1-9.84,11.77c-.79.6-1.45,1-1.92,1.34a2.6,2.6,0,0,1-.76.4c0-.07.94-.77,2.45-2a42.65,42.65,0,0,0,9.75-11.65C244.21,238.54,244.72,237.43,244.8,237.47Z" style="fill:#455a64"></path><path d="M176,149.1l7.48,57.48L185,222.33s41.05,9.54,64.81-2.55a17.51,17.51,0,0,0,5.44-4c2.87-3.37,4.74-4.78,2.06-8.3L250,195.78s8.45-18.6,4.9-33.56-9.47-39.32-9.47-39.32l-19.62-3.09-25.43-.36L179.68,122Z" style="fill:#ffbf9d"></path><path d="M255.53,165.06l-.19-2-10.43-17.34-5.08-23.64-3-.5,5,23.85-20.19,21.84L196.1,146.09l-2.76-25.76-3.12.23,3.21,26.06-11.64,14.13-4.42,4.31v2.62L181,189.49l71.46,1.62,1.62-6.57A58.6,58.6,0,0,0,255.53,165.06Z" style="fill:#2058F2"></path><path d="M239.13,196.57a13,13,0,0,1-2.84,1,42.12,42.12,0,0,1-7.11,1.27,43.93,43.93,0,0,1-7.23,0,12.36,12.36,0,0,1-3-.44,24.08,24.08,0,0,1,3,.07,59.76,59.76,0,0,0,7.16-.2,60.46,60.46,0,0,0,7.08-1.1A23.45,23.45,0,0,1,239.13,196.57Z" style="fill:#ff9a6c"></path><g style="opacity:0.30000000000000004"><path d="M253.16,191.11l-2.38-17.55-12.49-24.39-3.49,3.77,10.08,29.89c-2-.18-8.64-1-13.47-3.64,0,0,4.12,6.81,14.72,7.33l1.51,4.48Z"></path></g><path d="M248,181.38a2.68,2.68,0,0,1-.27-.61c-.18-.46-.4-1-.68-1.78l-2.41-6.56c-2-5.62-4.74-13.28-7.76-21.74-2.83-8.1-5.41-15.46-7.33-20.95l0,0a30.55,30.55,0,0,1-3.08-7,5.23,5.23,0,0,1-.06-2.1.9.9,0,0,1,.26-.49c.12-.08.2,0,.19,0s-.07,0-.15.07a1,1,0,0,0-.19.47,5.67,5.67,0,0,0,.15,2,33.57,33.57,0,0,0,3.21,6.88h0v0c2,5.48,4.58,12.83,7.46,20.9,3,8.49,5.65,16.16,7.62,21.79.93,2.75,1.69,5,2.25,6.63l.58,1.81A4.31,4.31,0,0,1,248,181.38Z" style="fill:#ff9a6c"></path><path d="M217.51,173.56a5.78,5.78,0,0,1-.74,1.14,19.83,19.83,0,0,1-2.51,2.72,21.46,21.46,0,0,1-22.9,3.87,19.83,19.83,0,0,1-3.26-1.75,5.25,5.25,0,0,1-1.07-.83A38.09,38.09,0,0,0,191.5,181,21.92,21.92,0,0,0,214,177.14,41.36,41.36,0,0,0,217.51,173.56Z" style="fill:#263238"></path><path d="M248,182.75a3,3,0,0,1-.92.15,19.93,19.93,0,0,1-2.55.09,28.9,28.9,0,0,1-8.28-1.42,28.39,28.39,0,0,1-7.51-3.78,19.68,19.68,0,0,1-2-1.58c-.45-.41-.68-.64-.66-.67s1.08.79,2.86,2a33,33,0,0,0,7.47,3.58,32.68,32.68,0,0,0,8.13,1.55C246.7,182.75,248,182.66,248,182.75Z" style="fill:#263238"></path><g style="opacity:0.30000000000000004"><path d="M188.92,152.64c-.13.19-8.69,19.5-8.69,19.5s7.17,12.39,21.58,10.54l.46-.07s-10,4.79-19.81-.78l-1.94,4.73-2.92-17.48Z"></path></g><path d="M221.31,167.54c-.09,0,.27-1.06.5-2.79a17.21,17.21,0,0,0,.11-3.05,17.4,17.4,0,0,0-1.95-7.15,17.4,17.4,0,0,0-1.64-2.57c-1.07-1.37-1.91-2.08-1.84-2.15s.24.13.63.44a11.23,11.23,0,0,1,1.49,1.48,15.37,15.37,0,0,1,1.78,2.58,17.51,17.51,0,0,1,1.44,3.56,17.78,17.78,0,0,1,.57,3.79,15.33,15.33,0,0,1-.23,3.12,10.69,10.69,0,0,1-.54,2C221.46,167.3,221.35,167.55,221.31,167.54Z" style="fill:#ff9a6c"></path><path d="M236.09,212.86a8.24,8.24,0,0,1-6.15.33" style="fill:#ffbf9d"></path><path d="M229.94,213.19c.05-.15,1.4.27,3.09.17s3-.64,3.06-.5a6,6,0,0,1-6.15.33Z" style="fill:#ff9a6c"></path><path d="M231,225.59s-10.22-3.38-16-4.93c-7.06-1.89-6.93-4.85-6.21-7.55s5.14-2,8.86-3.85c2.33-1.14,2.78-2.65,2.81-3.59a.61.61,0,0,0-.8-.59c-3.67,1.3-8.7-1.18-12.24-.57-3.78.66-12.88,4.55-12.88,4.55l-12.85-7.75L175.1,214l9,7.13c3.34,2.9,14.62,12.17,15.8,12.66,1.36.56,6.64-.05,8.8-.34.45.17.89.32,1.29.45,9.91,3.3,9.29-1.59,9.29-1.59,8.38.51,6.76-3.42,6.76-3.42C234.5,228.81,231,225.59,231,225.59Z" style="fill:#ffbf9d"></path><path d="M252.9,215.72a4.17,4.17,0,0,1-.79.69,26.87,26.87,0,0,1-2.35,1.64,38.39,38.39,0,0,1-8.58,4,40,40,0,0,1-9.27,1.82c-1.21.09-2.19.11-2.86.09a4.62,4.62,0,0,1-1.05-.08c0-.09,1.49-.11,3.88-.37a47.24,47.24,0,0,0,9.14-1.95,44.57,44.57,0,0,0,8.55-3.8C251.64,216.53,252.85,215.65,252.9,215.72Z" style="fill:#ff9a6c"></path><path d="M173.85,125.06s-7.08,7.32-15.7,21.93c-10.45,17.69-26.61,40.92-21.5,52.33s47.18,22.22,48.36,23,5.12-15.75,5.12-15.75l-26.31-17.49,27-39.26s3-22.42-3.88-26.33C179.81,119.45,173.85,125.06,173.85,125.06Z" style="fill:#ffbf9d"></path><path d="M181.67,201.31s.09,0,.23.11l.66.37,2.53,1.48,9.51,5.66h-.14a107.51,107.51,0,0,1,11.33-4.24,10.15,10.15,0,0,1,3.5-.45,28.55,28.55,0,0,1,3.63.51,30.58,30.58,0,0,0,3.74.49,9.33,9.33,0,0,0,1.9-.11,7.43,7.43,0,0,0,.93-.23.86.86,0,0,1,1.12.45,3.86,3.86,0,0,1-2,3.64,12.86,12.86,0,0,1-4,1.56,26.77,26.77,0,0,0-4.14,1.09,2.45,2.45,0,0,0-1.39,1.38,7.55,7.55,0,0,0-.37,2.12,4,4,0,0,0,2.09,3.53A14.39,14.39,0,0,0,215,220.4c3,.82,6.08,1.76,9.18,2.73l6.85,2.21.06,0,0,0a3,3,0,0,1,.66.9,1.39,1.39,0,0,1,.05,1.18,1.48,1.48,0,0,1-.34.5c-.15.12-.31.23-.46.33a4.88,4.88,0,0,1-1,.38,17.13,17.13,0,0,1-4,.41l.24-.35a2.32,2.32,0,0,1-.47,2.38,4.16,4.16,0,0,1-2.08,1.11,15.74,15.74,0,0,1-4.47.27l.26-.27a2.64,2.64,0,0,1-1.84,2.68,7.56,7.56,0,0,1-3.19.26,27.5,27.5,0,0,1-5.87-1.55h.11c-1.38.18-2.74.33-4.07.43a23.77,23.77,0,0,1-3.95.07,2.89,2.89,0,0,1-1-.25,9.12,9.12,0,0,1-.83-.51c-.52-.36-1-.72-1.51-1.08l-2.86-2.16c-3.67-2.83-6.91-5.4-9.59-7.7l.05,0-9.65-3.14-2.56-.85-.65-.23-.22-.09.23.05.67.19,2.58.78,9.69,3h0l0,0c2.7,2.26,6,4.81,9.64,7.62L197.6,232c.49.35,1,.71,1.51,1.06a8.09,8.09,0,0,0,.77.48,2.52,2.52,0,0,0,.85.2,42.68,42.68,0,0,0,7.92-.53h0l.05,0a27,27,0,0,0,5.77,1.5,6.9,6.9,0,0,0,3-.24A2.13,2.13,0,0,0,219,232.3l0-.29h.28a15.55,15.55,0,0,0,4.31-.27,3.6,3.6,0,0,0,1.83-1,1.8,1.8,0,0,0,.38-1.84l-.12-.35H226a16.62,16.62,0,0,0,3.87-.4c.6-.16,1.28-.42,1.47-.91s-.17-1.09-.59-1.5l.1.05-6.85-2.2c-3.09-1-6.14-1.91-9.16-2.73a14.85,14.85,0,0,1-4.35-1.81,5.32,5.32,0,0,1-1.7-1.67,4.11,4.11,0,0,1-.62-2.3,7.91,7.91,0,0,1,.41-2.27,2.89,2.89,0,0,1,1.65-1.67,26.29,26.29,0,0,1,4.24-1.11,12.62,12.62,0,0,0,3.84-1.48,4.63,4.63,0,0,0,1.39-1.36,3.2,3.2,0,0,0,.38-.87,2.34,2.34,0,0,0,.09-.46c0-.08,0-.16,0-.23a.41.41,0,0,0,0-.16.39.39,0,0,0-.55-.19,5.74,5.74,0,0,1-1,.25,10.37,10.37,0,0,1-2,.11,30.35,30.35,0,0,1-3.79-.52,31.54,31.54,0,0,0-3.58-.52,9.53,9.53,0,0,0-3.37.43,106.7,106.7,0,0,0-11.32,4.13l-.07,0-.07,0L185,203.41l-2.49-1.54-.64-.41Z" style="fill:#ff9a6c"></path><path d="M208.65,215.74a4.23,4.23,0,0,1,.35-3.4,8.31,8.31,0,0,1,2.34-2.6c4.92-3.88,11.49-4.82,17.74-5.28a57.2,57.2,0,0,1,10.79,0" style="fill:#ffbf9d"></path><path d="M239.87,204.46a9.78,9.78,0,0,1-1.44,0c-.92,0-2.26-.07-3.91,0s-3.62.15-5.8.34a62,62,0,0,0-7,.92,27.45,27.45,0,0,0-6.72,2.13,17.35,17.35,0,0,0-4.74,3.21,5.36,5.36,0,0,0-1.68,3.34,7.39,7.39,0,0,0,.11,1.41s-.08-.1-.16-.34a3.39,3.39,0,0,1-.15-1.07,5.39,5.39,0,0,1,1.61-3.6,16.89,16.89,0,0,1,4.8-3.38,27.1,27.1,0,0,1,6.83-2.21,57.1,57.1,0,0,1,7.1-.89c2.19-.16,4.17-.24,5.83-.23s3,.1,3.94.2A7,7,0,0,1,239.87,204.46Z" style="fill:#ff9a6c"></path><path d="M244.42,104.08c.07-3.09,1.42-6,2.59-8.85s2.19-6,1.57-9c-.79-3.81-4-6.64-5.55-10.2s-1.44-7.63-1.49-11.54-.44-8.07-2.82-11.17c-3-3.92-11.49-5.17-15.71-2.59-2.12,22.06-8.87,44.07-5.6,66A59,59,0,0,0,249,111.39C246,110.57,244.36,107.17,244.42,104.08Z" style="fill:#263238"></path><path d="M199.24,114.14,197,61a4.73,4.73,0,0,1,4.42-4.64L226.76,51c8.08-.53,13,9.59,13.23,17.69.22,9,.12,20-1.2,26.64C236.12,108.71,225.73,110,225.73,110l.71,10a12.91,12.91,0,0,1-2.61,8.71h0a12.89,12.89,0,0,1-15.59,3.94l-.72-.33A12.87,12.87,0,0,1,200,121.89Z" style="fill:#ffbf9d"></path><path d="M234.9,79.57a1.74,1.74,0,0,1-1.74,1.68,1.66,1.66,0,0,1-1.72-1.63,1.74,1.74,0,0,1,1.73-1.68A1.67,1.67,0,0,1,234.9,79.57Z" style="fill:#263238"></path><path d="M237.2,73.61c-.22.22-1.49-.8-3.35-.87s-3.26.81-3.45.58.14-.51.75-.92a4.81,4.81,0,0,1,2.77-.73,4.53,4.53,0,0,1,2.66,1C237.13,73.1,237.31,73.52,237.2,73.61Z" style="fill:#263238"></path><path d="M219,79.57a1.73,1.73,0,0,1-1.73,1.68,1.65,1.65,0,0,1-1.72-1.63,1.73,1.73,0,0,1,1.73-1.68A1.66,1.66,0,0,1,219,79.57Z" style="fill:#263238"></path><path d="M220,74.17c-.23.21-1.5-.8-3.36-.87s-3.25.8-3.44.57.13-.5.75-.91a4.71,4.71,0,0,1,2.77-.74,4.52,4.52,0,0,1,2.65,1C219.91,73.66,220.09,74.07,220,74.17Z" style="fill:#263238"></path><path d="M225.33,88a12.25,12.25,0,0,1,3-.43c.48,0,.93-.1,1-.43a2.45,2.45,0,0,0-.27-1.41l-1.26-3.67c-1.74-5.22-3-9.51-2.78-9.58s1.8,4.11,3.55,9.33l1.2,3.69a2.74,2.74,0,0,1,.17,1.87,1.18,1.18,0,0,1-.81.66,2.64,2.64,0,0,1-.81.08A12.61,12.61,0,0,1,225.33,88Z" style="fill:#263238"></path><path d="M225.76,110.06a34.26,34.26,0,0,1-17.85-5.52s4.57,10.14,18.1,9.41Z" style="fill:#ff9a6c"></path><path d="M220.25,66.36c-.2.49-2.05.18-4.24.36s-4,.7-4.25.24c-.12-.23.21-.69.94-1.15a7.37,7.37,0,0,1,6.47-.46C220,65.71,220.34,66.12,220.25,66.36Z" style="fill:#e0e0e0"></path><path d="M231.17,65.16c.48-.29,1.7.56,3.33,1.1s3.1.69,3.29,1.21c.07.25-.28.58-1,.77a5.35,5.35,0,0,1-2.93-.2,5.24,5.24,0,0,1-2.4-1.66C231,65.78,231,65.31,231.17,65.16Z" style="fill:#263238"></path><path d="M229.77,50.9c-1.91-6-6.87-6.88-12.18-7.85s-13.41.84-18,3.62c-3.61,2.16-7.7,4.94-10.4,8.16s-3.91,6.74-5.64,10.39c-2.68,5.69-3,12.16-3.72,18.4a119.21,119.21,0,0,1-5.13,23.1c-.88,2.69-1.82,5.92,1.72,7.74a8.55,8.55,0,0,0,2.09.69c5.62,1.11,11,3.43,17.22,4.28l3.89.26c4.92.33,7.67-2.86,7.79-7.15.37-12.93-4.12-34.52-4.5-38.63C202.87,73.91,202.76,45.23,229.77,50.9Z" style="fill:#263238"></path><path d="M228,50.9a7.94,7.94,0,0,0-3.2,5.36c-.43,2.1-.46,4.27-1,6.34a13.44,13.44,0,0,1-8.35,9.11c-1.28.45-3,.55-3.71-.62a7.4,7.4,0,0,1-5,6.73c-2,.66-4.27.38-6.39.71s-4.43,1.62-4.68,3.75l.13-15,5.09-12.91,13.42-6.8Z" style="fill:#263238"></path><path d="M203.46,74a7.49,7.49,0,0,0,3.59-4.53,31.61,31.61,0,0,0,1.33-6.3,51.9,51.9,0,0,1,1.44-7.8,15.08,15.08,0,0,1,4-6.81,8.73,8.73,0,0,1,3-1.83,8.59,8.59,0,0,1,3-.52,7,7,0,0,1,4.14,1.28,4.26,4.26,0,0,1,.53.44,2.88,2.88,0,0,1,.35.37,3.24,3.24,0,0,1,.25.32,9.11,9.11,0,0,0-1.19-1,6.94,6.94,0,0,0-4.08-1.18A8.5,8.5,0,0,0,214,48.69a14.89,14.89,0,0,0-3.9,6.71,53,53,0,0,0-1.46,7.76,30.53,30.53,0,0,1-1.39,6.32,8.92,8.92,0,0,1-2.39,3.63A4.78,4.78,0,0,1,203.46,74Z" style="fill:#455a64"></path><path d="M192.38,71.4a8.11,8.11,0,0,0,2-.36,10.25,10.25,0,0,0,4.36-3.34,19.42,19.42,0,0,0,2.12-3.21,15.07,15.07,0,0,0,1.34-4.18c.29-1.53.47-3.16.76-4.84a23.29,23.29,0,0,1,.59-2.54,14.92,14.92,0,0,1,1-2.5A13.8,13.8,0,0,1,212.25,44a13.1,13.1,0,0,1,8.23,0,13.36,13.36,0,0,1,4.86,2.77,9.9,9.9,0,0,1,1.4,1.5l-.1-.09-.27-.29a6.21,6.21,0,0,0-.45-.46c-.19-.17-.39-.38-.65-.59a13.64,13.64,0,0,0-4.84-2.67,13,13,0,0,0-8.1.05,13.65,13.65,0,0,0-7.53,6.36,14.28,14.28,0,0,0-1,2.44,22.72,22.72,0,0,0-.58,2.51c-.29,1.67-.48,3.31-.78,4.85a14.91,14.91,0,0,1-1.38,4.23,19.22,19.22,0,0,1-2.17,3.22,10.06,10.06,0,0,1-4.47,3.32,6.14,6.14,0,0,1-1.5.28h-.53Z" style="fill:#455a64"></path><path d="M211.73,71.09s0,0,0,.13l-.06.36c0,.17-.06.37-.12.6s-.14.51-.22.81a9,9,0,0,1-1,2.07,7.37,7.37,0,0,1-2.19,2.15,12,12,0,0,1-7.87,1.39,22.29,22.29,0,0,1-4.75-1.07,19,19,0,0,1-4.75-2.29l-.3-.21.36,0a19.06,19.06,0,0,0,5.73-1.36l.1,0,.06.24A17.87,17.87,0,0,1,185.23,71l-.22-.15.26-.06a22.11,22.11,0,0,0,7.13-3,11.08,11.08,0,0,0,3.92-4.54,11.28,11.28,0,0,0,.86-3.85c0-.45,0-.8,0-1.06V58c0-.07,0-.1,0-.1a.82.82,0,0,0,0,.1c0,.07,0,.16,0,.27s0,.61,0,1.06a10.89,10.89,0,0,1-.8,3.91,11.15,11.15,0,0,1-3.94,4.65A22.23,22.23,0,0,1,185.33,71l0-.22a17.74,17.74,0,0,0,11.33,2.82l.87-.09-.81.33-.1,0a18.71,18.71,0,0,1-5.81,1.38l.06-.23a19.34,19.34,0,0,0,4.69,2.28,22.4,22.4,0,0,0,4.69,1.07A11.91,11.91,0,0,0,208,77.07,7.24,7.24,0,0,0,210.21,75a8.54,8.54,0,0,0,1-2l.24-.79c.07-.23.1-.43.14-.59l.08-.37A.64.64,0,0,1,211.73,71.09Z" style="fill:#455a64"></path><path d="M181.38,110c-.07,0,1.26-7.59,3-16.93s3.15-16.89,3.22-16.87-1.26,7.58-3,16.92S181.45,110,181.38,110Z" style="fill:#455a64"></path><path d="M188.87,112.4a1.39,1.39,0,0,1,0-.33c0-.23,0-.54,0-.92,0-.81,0-2,0-3.42,0-2.88.18-6.87.49-11.26s.73-8.36,1.1-11.22c.18-1.43.34-2.59.47-3.38.06-.38.11-.68.15-.92a2.92,2.92,0,0,1,.06-.32,1.19,1.19,0,0,1,0,.33c0,.23-.06.54-.1.92-.1.83-.23,2-.39,3.39-.32,2.87-.72,6.83-1,11.22s-.47,8.36-.56,11.24c0,1.42-.06,2.58-.09,3.42q0,.57,0,.93C188.88,112.29,188.87,112.4,188.87,112.4Z" style="fill:#455a64"></path><path d="M226.68,91.75a3,3,0,0,0-.87-.71h.06a2.59,2.59,0,0,0-2.94-.3,3.06,3.06,0,0,0-1.28,3.33,2.45,2.45,0,0,0,1.26,1.33,4.36,4.36,0,0,0,1.82.41,2.76,2.76,0,0,0,1.7-.38,2.08,2.08,0,0,0,.76-1.18A2.93,2.93,0,0,0,226.68,91.75Z" style="fill:#ff9a6c"></path><path d="M226.62,120.94a16.27,16.27,0,0,1,2-4.53c1.23-1.66,4-6.71,4-6.71l.17-2.21s-4.26-8.52-2.37-11.64l1-.32s-1.68-2.28,0-4.06l1.57.08,6.37,9.35-3.77-9.68s.09-2.4,1.74-2.82l6.83,10.78s-2.41-4.81-2.19-6,.11-2.31,1.47-3.16l3.65,6.63.48,11.14L240.48,121" style="fill:#ffbf9d"></path><path d="M240.48,121a2.05,2.05,0,0,1,.1-.25c.09-.18.21-.41.34-.69.34-.64.79-1.52,1.37-2.64l5.16-9.73,0,.11c-.16-3.28-.33-7-.53-11.14l0,.11-3.67-6.61.4.1a2.37,2.37,0,0,0-1.14,1.77c-.07.4-.13.81-.19,1.21a3.05,3.05,0,0,0,.19,1.09,34.65,34.65,0,0,0,2,4.68l-.53.29-6.83-10.78.34.14a1.64,1.64,0,0,0-1,.75,3.81,3.81,0,0,0-.53,1.78l0-.13,3.76,9.7,1,2.48-1.49-2.21-6.36-9.37.22.13-1.56-.09.22-.08a2.37,2.37,0,0,0-.7,1.83,3.91,3.91,0,0,0,.67,1.88l.2.3-.34.11-1,.32.15-.12a5.31,5.31,0,0,0-.39,3.11,18.64,18.64,0,0,0,.66,3A38.12,38.12,0,0,0,233,107.4l0,.06v.05c-.07.8-.13,1.52-.19,2.21v0l0,0q-1.49,2.65-2.73,4.68c-.79,1.37-1.7,2.39-2.16,3.37a23.36,23.36,0,0,0-1,2.29,7.74,7.74,0,0,1-.3.81s0-.08,0-.22.08-.35.16-.62a16.68,16.68,0,0,1,.88-2.36c.45-1,1.34-2.06,2.1-3.43s1.68-2.93,2.64-4.7l0,.08c.05-.69.1-1.41.15-2.21l0,.11a38.42,38.42,0,0,1-2.13-5.33,17.65,17.65,0,0,1-.7-3.11,5.7,5.7,0,0,1,.43-3.44l0-.08.1,0,1-.33-.13.41a4.32,4.32,0,0,1-.79-2.16,3,3,0,0,1,.84-2.25l.09-.09h.13l1.56.07h.14l.08.12,6.39,9.34-.53.28-3.78-9.68,0-.07V91.2a4.57,4.57,0,0,1,.62-2.08,2.28,2.28,0,0,1,1.36-1l.21,0,.12.18L244.48,99l-.52.3a34.58,34.58,0,0,1-2-4.78,3.39,3.39,0,0,1-.2-1.36c.06-.41.13-.81.19-1.22a3,3,0,0,1,1.41-2.13l.26-.15.14.25c1.26,2.32,2.48,4.54,3.63,6.64l0,.05v.06c.16,4.11.3,7.86.42,11.14v.06l0,.05-5.33,9.64L241,120.16l-.4.66A1,1,0,0,1,240.48,121Z" style="fill:#ff9a6c"></path><path d="M237.13,109.37s.08-.22.15-.58a5,5,0,0,0-.07-1.59q-.11-.54-.21-1.11c0-.21-.08-.42-.13-.63a2.86,2.86,0,0,0-.2-.58c-.37-.81-.88-1.7-1.4-2.62-2.16-3.68-4-6.64-3.82-6.73s2.18,2.71,4.35,6.42a25.06,25.06,0,0,1,1.4,2.71,4.44,4.44,0,0,1,.21.71l.09.63c.07.41.12.79.15,1.15a4.16,4.16,0,0,1-.14,1.71C237.35,109.25,237.15,109.39,237.13,109.37Z" style="fill:#ff9a6c"></path><path d="M241.43,108.38c-.09,0,.09-.47.14-1.19a6.19,6.19,0,0,0-.45-2.73,15,15,0,0,0-1.35-2.52c-.4-.64-.63-1-.56-1.11s.42.27.91.85a9.28,9.28,0,0,1,1.58,2.55,5.28,5.28,0,0,1,.3,3C241.82,108,241.49,108.42,241.43,108.38Z" style="fill:#ff9a6c"></path><path d="M245.35,106.39a21.94,21.94,0,0,1-.68-3.57c-.36-2-.83-3.51-.66-3.58a7.63,7.63,0,0,1,1.27,3.46C245.66,104.72,245.52,106.39,245.35,106.39Z" style="fill:#ff9a6c"></path><path d="M245.38,122.9a26.68,26.68,0,0,1,10.4,8.85c4,6,16,29.58,19.32,39s2.83,18.64-2.36,22.71-17.89,3.13-22.71-6.62c-2.24-4.52-23.59-66.77-23.59-66.77l13.64-2.89,1.15,5.19Z" style="fill:#ffbf9d"></path><path d="M271.22,178.69a10.81,10.81,0,0,0,0-2.51,17,17,0,0,0-2.65-6.29c-3.08-5-7.18-11.95-11.55-19.74l-11.2-19.92c-1.44-2.5-2.61-4.53-3.45-6l-.93-1.64a2.53,2.53,0,0,1-.29-.59,4.43,4.43,0,0,1,.38.54c.26.41.6.93,1,1.59.87,1.38,2.1,3.41,3.59,5.92,3,5,7,12.08,11.35,19.86s8.4,14.78,11.41,19.8a16.6,16.6,0,0,1,2.53,6.45,7.45,7.45,0,0,1,0,1.9A2.4,2.4,0,0,1,271.22,178.69Z" style="fill:#ff9a6c"></path><path d="M228,93.73c-.16.25-1.75-.64-3.86-.42s-3.52,1.3-3.73,1.08.15-.53.77-1a5.66,5.66,0,0,1,5.89-.52C227.72,93.22,228,93.62,228,93.73Z" style="fill:#263238"></path></g><g id="freepik--speech-bubble--inject-73"><polygon points="294.3 51.95 282.92 40.17 280.09 58.8 264.85 58.29 274.38 70.82 264.79 83.41 280.68 80.28 282.98 96.27 295.83 86.54 312.04 95.03 308.49 78.65 326.88 75.76 312.58 67.32 320.91 52.94 306.62 58.53 304.88 40.79 294.3 51.95" style="fill:#fff"></polygon><path d="M294.3,52s.23-.27.69-.77L297,49l7.77-8.29.18-.19,0,.26c.49,4.81,1.09,10.81,1.79,17.73l-.23-.14,14.28-5.62.53-.2-.28.49c-2.58,4.44-5.37,9.29-8.32,14.39l-.08-.3L327,75.55l.57.34-.65.1L308.53,78.9l.2-.3c1.14,5.22,2.34,10.74,3.56,16.37l.11.53-.48-.25-14-7.35-2.17-1.13.28,0-12.86,9.74-.34.26-.06-.43q-1.17-8.18-2.29-16l.29.21-15.9,3.13-.61.12.38-.5,9.61-12.59V71l-9.52-12.54-.26-.34.42,0,15.25.54-.18.15c1.13-7.33,2.1-13.57,2.88-18.63l0-.25.17.18,8.38,8.79,2.17,2.28.74.8-.74-.73L291.37,49l-8.54-8.74.21-.07c-.76,5.07-1.69,11.31-2.78,18.65l0,.15h-.16l-15.24-.49.17-.32,9.55,12.51.1.14-.1.13L265,83.56l-.23-.38L280.63,80l.26-.05,0,.25q1.13,7.82,2.3,16l-.4-.17,12.85-9.74.13-.09.14.07,2.17,1.14,14,7.35-.37.28L308.25,78.7l-.06-.25.26,0,18.39-2.89-.08.44-14.29-8.45-.19-.11.11-.19,8.35-14.37.25.28-14.31,5.56-.2.08,0-.22c-.65-6.92-1.23-12.92-1.68-17.74l.2.07-7.92,8.25c-.89.93-1.58,1.63-2.05,2.13Z" style="fill:#263238"></path><path d="M263.78,71.62a3.4,3.4,0,1,1-3.4-3.4A3.4,3.4,0,0,1,263.78,71.62Z" style="fill:#fff"></path><path d="M263.78,71.62a7.22,7.22,0,0,1-.2-.81,3.44,3.44,0,0,0-1.25-1.75,3.25,3.25,0,0,0-3-.41,3.17,3.17,0,0,0,0,5.94,3.25,3.25,0,0,0,3-.42,3.41,3.41,0,0,0,1.25-1.75,7.35,7.35,0,0,1,.2-.8,1.65,1.65,0,0,1,0,.85,3.37,3.37,0,0,1-1.22,2,3.55,3.55,0,0,1-3.41.57,3.61,3.61,0,1,1,3.41-6.26,3.43,3.43,0,0,1,1.22,2A1.7,1.7,0,0,1,263.78,71.62Z" style="fill:#263238"></path><path d="M296,59.26l-.69,10.87a1.75,1.75,0,0,1-1.65,1.65h0a1.76,1.76,0,0,1-1.86-1.57l-1.21-10.92a1.39,1.39,0,0,1,1.4-1.54l2.65,0A1.38,1.38,0,0,1,296,59.26Z" style="fill:#263238"></path><path d="M290.76,77.89a2.65,2.65,0,1,0,1.68-3.35A2.65,2.65,0,0,0,290.76,77.89Z" style="fill:#263238"></path></g></svg>