<svg xmlns="http://www.w3.org/2000/svg" viewBox="0 0 500 500"><g id="freepik--Floor--inject-79"><ellipse id="freepik--floor--inject-79" cx="250" cy="344.96" rx="239.8" ry="139.95" style="fill:#f0f0f0"></ellipse></g><g id="freepik--Shadows--inject-79"><path id="freepik--Shadow--inject-79" d="M256.91,374.39l-87.45,50.49c-2.5,1.44-6.88,1.26-9.77-.41l-59.43-34.31c-14-8.06-15.47-20.25-3.39-27.23l52.75-30.45c12.09-7,33.2-6.1,47.16,1.95l59.43,34.32C259.1,370.42,259.42,372.94,256.91,374.39Z" style="fill:#e0e0e0"></path><path id="freepik--shadow--inject-79" d="M331.12,425.85c-4.19-.29-8.15,0-12.51,2.38-5.43,3-9.54,8.07-15.14,10.71-2.48,1.17-5.18,1.83-7.6,3.12-7.33,3.91-10.56,12.62-16.54,18.38-7.86,7.55-19.56,9.26-30.45,9.79-7.75.39-16-3.54-21.47-8.81-3.34-3.19-6-7.14-10-9.47-5.83-3.4-13.08-2.61-19.75-3.65s-14.11-5.77-13.41-12.49c.34-3.28,2.59-6,4.84-8.43,10.87-11.6,24.18-20.64,37.94-28.59q7.19-4.14,14.56-7.91a317.2,317.2,0,0,1,79.88-28.2c27.17-5.63,56.17-11.56,83.67-7.64,7.76,1.11,21.67,4.27,27.83,9.34,7.43,6.11,8.09,14.05,3.86,22.23C429.44,400.84,411.71,411,397,417.42a112,112,0,0,1-41.23,9.65,148.21,148.21,0,0,1-17.63-.52C335.67,426.32,333.36,426,331.12,425.85Z" style="fill:#e0e0e0"></path><polygon id="freepik--shadow--inject-79" points="10.85 335.96 63.91 366.6 258.6 254.19 205.41 223.64 10.85 335.96" style="fill:#e0e0e0"></polygon><path id="freepik--shadow--inject-79" d="M250.59,222.65c-9.25,5.34-9.25,14,0,19.34s24.25,5.34,33.5,0,9.26-14,0-19.34S259.84,217.31,250.59,222.65Z" style="fill:#e0e0e0"></path></g><g id="freepik--Pictures--inject-79"><g id="freepik--pictures--inject-79"><g id="freepik--Picture--inject-79"><g id="freepik--Frame--inject-79"><polygon points="413.24 114.97 411.2 116.18 369.35 92.02 371.38 90.8 413.24 114.97" style="fill:#fafafa"></polygon><polygon points="371.38 90.8 411.2 113.78 411.2 72.09 371.38 49.12 371.38 90.8" style="fill:#fff"></polygon><path d="M365.5,94.24l49.55,28.61v-53L365.49,41.26Zm3.84-46.32L411.2,72.09v44.09L369.35,92Z" style="fill:#f0f0f0"></path><polygon points="369.35 92.02 371.38 90.8 371.38 49.12 369.35 47.92 369.35 92.02" style="fill:#e0e0e0"></polygon><polygon points="365.5 41.26 367.57 40.07 417.12 68.68 415.05 69.87 365.5 41.26" style="fill:#fafafa"></polygon><polygon points="417.12 68.68 415.05 69.87 415.05 122.85 417.12 121.66 417.12 68.68" style="fill:#e0e0e0"></polygon></g><g id="freepik--Land--inject-79"><polygon points="372.94 89.55 409.64 110.75 409.64 100.15 400.47 78.96 394.75 84.26 396.81 93.14 384.13 66.03 372.94 78.96 372.94 89.55" style="fill:#f0f0f0"></polygon><path d="M395.1,68.73a6,6,0,0,1,2.71,4.7c0,1.73-1.21,2.43-2.71,1.56a6,6,0,0,1-2.72-4.7C392.38,68.56,393.6,67.86,395.1,68.73Z" style="fill:#f0f0f0"></path></g></g><g id="freepik--picture--inject-79"><g id="freepik--frame--inject-79"><polygon points="474.56 164.05 472.52 165.26 430.67 141.1 432.71 139.88 474.56 164.05" style="fill:#fafafa"></polygon><polygon points="432.71 139.88 472.52 162.86 472.52 121.17 432.71 98.2 432.71 139.88" style="fill:#fff"></polygon><path d="M426.82,143.32l49.55,28.61V119L426.82,90.34ZM430.67,97l41.85,24.17v44.09L430.67,141.1Z" style="fill:#f0f0f0"></path><polygon points="430.67 141.1 432.71 139.88 432.71 98.2 430.67 97 430.67 141.1" style="fill:#e0e0e0"></polygon><polygon points="426.82 90.34 428.89 89.15 478.44 117.76 476.37 118.95 426.82 90.34" style="fill:#fafafa"></polygon><polygon points="478.44 117.76 476.37 118.95 476.37 171.93 478.44 170.74 478.44 117.76" style="fill:#e0e0e0"></polygon></g><g id="freepik--land--inject-79"><polygon points="434.26 138.63 470.97 159.83 470.97 149.23 461.79 128.04 456.08 133.34 458.13 142.22 445.46 115.11 434.26 128.04 434.26 138.63" style="fill:#f0f0f0"></polygon><path d="M456.42,117.81a6,6,0,0,1,2.72,4.7c0,1.73-1.22,2.43-2.72,1.57a6,6,0,0,1-2.71-4.71C453.71,117.64,454.92,116.94,456.42,117.81Z" style="fill:#f0f0f0"></path></g></g></g></g><g id="freepik--Plant--inject-79"><g id="freepik--plant--inject-79"><g id="freepik--Pot--inject-79"><path d="M282.08,233.51c8.06-8.22,12.79-28.75,4.93-35.27H247c-7.85,6.52-3.13,27,4.93,35.26a2.34,2.34,0,0,0,.22.23l.27.27c.23.22.47.44.73.65l.2.15c.19.16.39.31.6.46s.69.47,1,.67c6.63,3.82,17.38,3.82,24,0h0a12.43,12.43,0,0,0,1.05-.68c.2-.13.38-.28.56-.42l.24-.19c.25-.2.48-.41.7-.62s.22-.21.32-.32S282,233.58,282.08,233.51Z" style="fill:#f0f0f0"></path><path d="M250.5,195.61c-9.13,5.27-9.13,13.81,0,19.08s23.91,5.27,33,0,9.13-13.81,0-19.08S259.62,190.35,250.5,195.61Z" style="fill:#fafafa"></path><path d="M254.72,198.05c-6.8,3.92-6.8,10.28,0,14.2s17.8,3.92,24.59,0,6.8-10.28,0-14.2S261.51,194.13,254.72,198.05Z" style="fill:#e0e0e0"></path><path d="M279.31,204.79c-6.79-3.92-17.8-3.92-24.59,0a11.28,11.28,0,0,0-4.07,3.73,11.28,11.28,0,0,0,4.07,3.73c6.79,3.92,17.8,3.92,24.59,0a11.28,11.28,0,0,0,4.07-3.73A11.28,11.28,0,0,0,279.31,204.79Z" style="fill:#455a64"></path></g><g id="freepik--Cactus--inject-79"><path d="M279.84,159.78v46.07c0,1.9-1.25,3.8-3.76,5.24a.81.81,0,0,1-.18.1,16.56,16.56,0,0,1-5.73,1.84,22.23,22.23,0,0,1-6.31,0,16.56,16.56,0,0,1-5.73-1.84.81.81,0,0,1-.18-.1c-2.51-1.44-3.76-3.34-3.76-5.24V159.78a12.83,12.83,0,1,1,25.65,0Z" style="fill:#2058F2"></path><path d="M267,146.94h0c-.27.05-8.87,2.21-8.87,12.74v51.5a.81.81,0,0,1-.18-.1c-2.51-1.44-3.76-3.34-3.76-5.24V159.78A12.84,12.84,0,0,1,267,146.94Z" style="opacity:0.1"></path><path d="M279.84,159.78v46.07c0,1.9-1.25,3.8-3.76,5.24a.81.81,0,0,1-.18.1v-51.5c0-10.53-8.61-12.69-8.88-12.74h0A12.84,12.84,0,0,1,279.84,159.78Z" style="opacity:0.1"></path><path d="M270.17,157.22V213a22.23,22.23,0,0,1-6.31,0V157.22A18.66,18.66,0,0,1,267,147s-.05,2-.05,2,.06-2,.07-2A18.63,18.63,0,0,1,270.17,157.22Z" style="opacity:0.1"></path><path d="M258.13,173.57a.43.43,0,0,0-.43.43v3.27a.43.43,0,0,0,.86,0V174A.43.43,0,0,0,258.13,173.57Zm0-13a.43.43,0,0,0-.43.43v3.27a.43.43,0,0,0,.86,0V161A.43.43,0,0,0,258.13,160.52Zm0,6.53a.43.43,0,0,0-.43.43v3.26a.43.43,0,1,0,.86,0v-3.26A.43.43,0,0,0,258.13,167.05Zm4.24-18.14a12.18,12.18,0,0,0-2.29,2.47.42.42,0,0,0,.11.59.37.37,0,0,0,.24.08.41.41,0,0,0,.35-.18,11.38,11.38,0,0,1,2.14-2.3.43.43,0,1,0-.55-.66Zm-3.27,5.21a.42.42,0,0,0-.55.26,14.6,14.6,0,0,0-.74,3.27.43.43,0,0,0,.38.47h.05a.44.44,0,0,0,.43-.38,13.7,13.7,0,0,1,.69-3.08A.42.42,0,0,0,259.1,154.12Zm-1,32.51a.42.42,0,0,0-.43.42v3.27a.43.43,0,0,0,.86,0v-3.27A.42.42,0,0,0,258.13,186.63Zm0-6.53a.43.43,0,0,0-.43.43v3.26a.43.43,0,0,0,.86,0v-3.26A.43.43,0,0,0,258.13,180.1Zm5.73-16.45a.43.43,0,0,0-.43.43v3.43a.44.44,0,0,0,.43.43.43.43,0,0,0,.43-.43v-3.43A.43.43,0,0,0,263.86,163.65Zm6.31,22.8a.43.43,0,0,0-.43.43v3.43a.43.43,0,1,0,.85,0v-3.43A.42.42,0,0,0,270.17,186.45Zm-6.31-29.66a.43.43,0,0,0-.43.43v3.43a.43.43,0,0,0,.43.43.43.43,0,0,0,.43-.43v-3.43A.43.43,0,0,0,263.86,156.79Zm6.25-.35h0a.43.43,0,0,0,.39-.46,19.61,19.61,0,0,0-.59-3.45.45.45,0,0,0-.53-.31.43.43,0,0,0-.3.53,18.84,18.84,0,0,1,.57,3.3A.42.42,0,0,0,270.11,156.44Zm.06,23.15a.43.43,0,0,0-.43.43v3.43a.43.43,0,1,0,.85,0V180A.42.42,0,0,0,270.17,179.59Zm-6.31,4.64a.43.43,0,0,0-.43.42v3.43a.43.43,0,0,0,.43.43.43.43,0,0,0,.43-.43v-3.43A.42.42,0,0,0,263.86,184.23Zm0-13.72a.43.43,0,0,0-.43.43v3.43a.44.44,0,0,0,.43.43.43.43,0,0,0,.43-.43v-3.43A.43.43,0,0,0,263.86,170.51Zm0,6.86a.43.43,0,0,0-.43.43v3.43a.43.43,0,0,0,.43.42.42.42,0,0,0,.43-.42V177.8A.43.43,0,0,0,263.86,177.37Zm1.44-27.25a.44.44,0,0,0-.56.24,19.51,19.51,0,0,0-1,3.37.42.42,0,0,0,.34.5h.08a.43.43,0,0,0,.42-.35,17.83,17.83,0,0,1,.92-3.22A.42.42,0,0,0,265.3,150.12Zm4.87,8.89a.43.43,0,0,0-.43.43v3.43a.43.43,0,1,0,.85,0v-3.43A.43.43,0,0,0,270.17,159Zm0,13.72a.43.43,0,0,0-.43.43v3.43a.43.43,0,1,0,.85,0v-3.43A.42.42,0,0,0,270.17,172.73Zm0-6.86a.43.43,0,0,0-.43.43v3.43a.43.43,0,1,0,.85,0V166.3A.42.42,0,0,0,270.17,165.87Zm-12,40.6a.43.43,0,0,0-.43.43v3.26a.43.43,0,0,0,.86,0V206.9A.43.43,0,0,0,258.13,206.47Zm0-13.05a.43.43,0,0,0-.43.43v3.26a.43.43,0,1,0,.86,0v-3.26A.43.43,0,0,0,258.13,193.42Zm0,6.53a.43.43,0,0,0-.43.43v3.26a.43.43,0,0,0,.86,0v-3.26A.43.43,0,0,0,258.13,200Zm5.73-9.59a.43.43,0,0,0-.43.42v3.43a.43.43,0,0,0,.43.43.43.43,0,0,0,.43-.43v-3.43A.42.42,0,0,0,263.86,190.36Zm0,13.71a.44.44,0,0,0-.43.43v3.43a.43.43,0,0,0,.43.43.43.43,0,0,0,.43-.43V204.5A.43.43,0,0,0,263.86,204.07Zm0-6.85a.43.43,0,0,0-.43.42v3.43a.43.43,0,0,0,.43.43.43.43,0,0,0,.43-.43v-3.43A.42.42,0,0,0,263.86,197.22Zm12-30.18a.43.43,0,0,0-.43.43v3.27a.43.43,0,0,0,.86,0v-3.27A.43.43,0,0,0,275.9,167Zm0,32.91a.42.42,0,0,0-.43.42v3.27a.43.43,0,0,0,.86,0v-3.27A.42.42,0,0,0,275.9,200Zm0-6.53a.43.43,0,0,0-.43.43v3.26a.43.43,0,0,0,.86,0v-3.26A.43.43,0,0,0,275.9,193.42Zm0-13.32a.43.43,0,0,0-.43.43v3.26a.43.43,0,0,0,.86,0v-3.26A.43.43,0,0,0,275.9,180.1Zm-7.11-33a11.35,11.35,0,0,0-1.6-.58h-.31a9.26,9.26,0,0,0-1.65.6.42.42,0,0,0,.18.81.51.51,0,0,0,.17,0,5.94,5.94,0,0,1,.71-.29.38.38,0,0,0,.15.18.42.42,0,0,0,.56-.09,18.26,18.26,0,0,1,1,1.87.42.42,0,0,0,.39.25.39.39,0,0,0,.18,0,.42.42,0,0,0,.21-.57q-.36-.78-.78-1.5l.46.19a.47.47,0,0,0,.17,0,.41.41,0,0,0,.39-.25A.44.44,0,0,0,268.79,147.13Zm7.11,13.39a.43.43,0,0,0-.43.43v3.26a.43.43,0,0,0,.86,0V161A.43.43,0,0,0,275.9,160.52Zm0,13a.43.43,0,0,0-.43.43v3.26a.43.43,0,0,0,.86,0V174A.43.43,0,0,0,275.9,173.57Zm0,13.05a.43.43,0,0,0-.43.43v3.26a.43.43,0,0,0,.86,0v-3.26A.43.43,0,0,0,275.9,186.62Zm-5.73,12.82a.43.43,0,0,0-.43.43v3.43a.43.43,0,1,0,.85,0v-3.43A.42.42,0,0,0,270.17,199.44Zm0-6.86a.43.43,0,0,0-.43.43v3.43a.43.43,0,1,0,.85,0V193A.42.42,0,0,0,270.17,192.58Zm0,13.72a.43.43,0,0,0-.43.43v3.43a.43.43,0,0,0,.85,0v-3.43A.42.42,0,0,0,270.17,206.3Zm5.62-48.18h0a.43.43,0,0,0,.38-.47,15.17,15.17,0,0,0-.75-3.27.42.42,0,0,0-.54-.26.44.44,0,0,0-.27.55,13.46,13.46,0,0,1,.7,3.08A.44.44,0,0,0,275.79,158.12Zm-4.14-9.22a.43.43,0,1,0-.55.67,11.6,11.6,0,0,1,2.14,2.29.42.42,0,0,0,.35.19.41.41,0,0,0,.24-.08.42.42,0,0,0,.11-.6A12.73,12.73,0,0,0,271.65,148.9Zm4.25,57.57a.43.43,0,0,0-.43.43v3.26a.43.43,0,0,0,.86,0V206.9A.43.43,0,0,0,275.9,206.47Z" style="fill:#fff;opacity:0.4"></path><path d="M286.31,150.09a1.16,1.16,0,0,0-.27-1.19,2.06,2.06,0,0,0-1.08-.38,11.38,11.38,0,0,0-3.08.23,5.56,5.56,0,0,0,1.75-5,.69.69,0,0,0-.17-.39.63.63,0,0,0-.38-.16,5.55,5.55,0,0,0-5,1.74,12.21,12.21,0,0,0,.23-3.08,2.05,2.05,0,0,0-.38-1.07,1.18,1.18,0,0,0-1.2-.27,2.53,2.53,0,0,0-1.06.69,8,8,0,0,0-2.31,5.88,6.73,6.73,0,0,0,6.41,6.41,7.93,7.93,0,0,0,5.88-2.32A2.47,2.47,0,0,0,286.31,150.09Z" style="fill:#455a64"></path></g></g></g><g id="freepik--Bookshelves--inject-79"><g id="freepik--Bookcase--inject-79"><g id="freepik--v--inject-79"><polygon points="247.86 247.52 207.32 224.12 23.03 330.53 23.03 334.98 63.56 358.39 247.86 251.97 247.86 247.52" style="fill:#37474f"></polygon><polygon points="63.56 353.94 247.86 247.52 207.32 224.12 23.03 330.53 63.56 353.94" style="fill:#455a64"></polygon><polygon points="63.56 353.94 63.56 358.39 23.03 334.98 23.03 330.53 63.56 353.94" style="fill:#e0e0e0"></polygon><polygon points="247.86 85.13 207.32 61.35 203.47 63.58 203.47 226.34 244 249.75 247.86 247.9 247.86 85.13" style="fill:#37474f"></polygon><polygon points="203.47 226.34 244 249.75 244 86.98 203.47 63.58 203.47 226.34" style="fill:#263238"></polygon><g id="freepik--Books--inject-79"><g id="freepik--Book--inject-79"><polygon points="207.06 183.43 233.84 199.09 233.98 250.42 207.2 234.76 207.06 183.43" style="fill:#2058F2"></polygon><path d="M233,199.93l-25.92-15.05a10.84,10.84,0,0,1-5.91,3.25l25.7,15S228.51,202.73,233,199.93Z" style="fill:#f5f5f5"></path><path d="M224.37,203a5.48,5.48,0,0,0,5,0l4.35-2.52c1.38-.79,1.37-2.08,0-2.88l-25.55-14.83-1.08.62,25.13,14.68a.92.92,0,0,1,0,1.73l-4,2.31a3.32,3.32,0,0,1-3,0l-25.11-14.66-1.22.71Z" style="fill:#2058F2"></path><path d="M224.37,203a5.48,5.48,0,0,0,5,0l4.35-2.52c1.38-.79,1.37-2.08,0-2.88l-25.55-14.83-1.08.62,25.13,14.68a.92.92,0,0,1,0,1.73l-4,2.31a3.32,3.32,0,0,1-3,0l-25.11-14.66-1.22.71Z" style="fill:#fff;opacity:0.6000000000000001"></path><path d="M198.83,188.19l.13,51.33,25.54,14.83a5.5,5.5,0,0,0,5,0l4.35-2.51a1.76,1.76,0,0,0,1-1.44l-.13-51.34a1.73,1.73,0,0,1-1,1.44L229.34,203a5.51,5.51,0,0,1-5,0Z" style="fill:#2058F2"></path><path d="M198.83,188.19l.13,51.33,25.54,14.83a5.5,5.5,0,0,0,5,0l4.35-2.51a1.76,1.76,0,0,0,1-1.44l-.13-51.34a1.73,1.73,0,0,1-1,1.44L229.34,203a5.51,5.51,0,0,1-5,0Z" style="fill:#fff;opacity:0.4"></path><path d="M226.86,203.63a5.11,5.11,0,0,0,2.48-.59l4.36-2.52a1.73,1.73,0,0,0,1-1.44l.13,51.34a1.76,1.76,0,0,1-1,1.44l-4.35,2.51A5.18,5.18,0,0,1,227,255Z" style="fill:#2058F2"></path><path d="M226.86,203.63a5.11,5.11,0,0,0,2.48-.59l4.36-2.52a1.73,1.73,0,0,0,1-1.44l.13,51.34a1.76,1.76,0,0,1-1,1.44l-4.35,2.51A5.18,5.18,0,0,1,227,255Z" style="fill:#fff;opacity:0.7000000000000001"></path><path d="M226.94,248.21a17.51,17.51,0,0,0,7.91-4.57v-2.39a17.51,17.51,0,0,1-7.91,4.57Z" style="fill:#2058F2"></path><path d="M226.94,214.06a17.42,17.42,0,0,0,7.91-4.57v-2.38a17.41,17.41,0,0,1-7.91,4.56Z" style="fill:#2058F2"></path></g><g id="freepik--book--inject-79"><polygon points="200.09 201.8 224.89 216.3 218.09 259.89 193.29 245.39 200.09 201.8" style="fill:#2058F2"></polygon><polygon points="200.09 201.8 224.89 216.3 218.09 259.89 193.29 245.39 200.09 201.8" style="opacity:0.35000000000000003"></polygon><path d="M223.92,217,199.9,203a13,13,0,0,1-6.38,2.49l23.8,13.89S219,219.16,223.92,217Z" style="fill:#fff"></path><path d="M214.84,219.22a6.4,6.4,0,0,0,5,.23l4.71-1.94c1.48-.61,1.65-1.7.38-2.44l-23.67-13.75-1.17.48,23.27,13.6c.76.44.66,1.1-.23,1.46l-4.38,1.78a3.84,3.84,0,0,1-3-.14l-23.26-13.58-1.32.55Z" style="fill:#2058F2"></path><path d="M214.84,219.22a6.4,6.4,0,0,0,5,.23l4.71-1.94c1.48-.61,1.65-1.7.38-2.44l-23.67-13.75-1.17.48,23.27,13.6c.76.44.66,1.1-.23,1.46l-4.38,1.78a3.84,3.84,0,0,1-3-.14l-23.26-13.58-1.32.55Z" style="opacity:0.2"></path><path d="M191.17,205.47l-6.8,43.59L208,262.81a6.4,6.4,0,0,0,5,.23l4.72-1.94c.73-.3,1.15-.72,1.22-1.17l6.8-43.59c-.07.44-.48.87-1.22,1.17l-4.72,1.94a6.38,6.38,0,0,1-5-.23Z" style="fill:#2058F2"></path><path d="M191.17,205.47l-6.8,43.59L208,262.81a6.4,6.4,0,0,0,5,.23l4.72-1.94c.73-.3,1.15-.72,1.22-1.17l6.8-43.59c-.07.44-.48.87-1.22,1.17l-4.72,1.94a6.38,6.38,0,0,1-5-.23Z" style="opacity:0.30000000000000004"></path><path d="M217.26,219.84a6.15,6.15,0,0,0,2.57-.39l4.72-1.94c.74-.3,1.15-.73,1.22-1.17L219,259.93c-.07.45-.49.87-1.22,1.17L213,263a6.17,6.17,0,0,1-2.58.39Z" style="fill:#2058F2"></path><path d="M217.26,219.84a6.15,6.15,0,0,0,2.57-.39l4.72-1.94c.74-.3,1.15-.73,1.22-1.17L219,259.93c-.07.45-.49.87-1.22,1.17L213,263a6.17,6.17,0,0,1-2.58.39Z" style="opacity:0.1"></path></g></g><g id="freepik--book--inject-79"><path d="M166.28,194.27l.06,1.6-.91-1A1,1,0,0,1,166.28,194.27Z" style="fill:#2058F2"></path><path d="M166.28,194.27l.06,1.6-.91-1A1,1,0,0,1,166.28,194.27Z" style="opacity:0.5"></path><path d="M201.35,217.28a3.16,3.16,0,0,0-1.44-2.49l-32.28-18.64.39,55.58V253l31.89,18.87c.79.45,1.44.08,1.44-.83Z" style="fill:#2058F2"></path><path d="M165.19,224.16l0-13L157.88,207v-9.79l4.9-2.83c.64-.37,2-.17,2,.17a8.26,8.26,0,0,0,1.31,1.12,12,12,0,0,0,2.66,1.16l.4,29.64Z" style="fill:#2058F2"></path><path d="M165.19,224.16l0-13L157.88,207v-9.79l4.9-2.83c.64-.37,2-.17,2,.17a8.26,8.26,0,0,0,1.31,1.12,12,12,0,0,0,2.66,1.16l.4,29.64Z" style="opacity:0.15"></path><path d="M160.8,200.86l5.32-3.07-.1,0a2.9,2.9,0,0,1-1.07-1,1.48,1.48,0,0,1-.26-.9l-6.28,3.62Z" style="fill:#37474f"></path><path d="M168.74,198.11a2,2,0,0,1-1.11.17,2.94,2.94,0,0,1-.59-.12l-.19,0-.21-.08-.17-.07-.35-.17-5.29,3.06,1.58.91h0Z" style="fill:#e0e0e0"></path><path d="M162.79,194.34c.64-.37,2-.17,2,.17h0l-.07,1.35-4.05,2.34h-2.25l-.5-.42v-.6Z" style="opacity:0.4"></path><path d="M193.86,220l6.07-3.51a1.86,1.86,0,0,0-.68-.71l-3.54-2-27-15.57-6.36,3.66Z" style="fill:#ebebeb"></path><path d="M194.67,274l4.58-2.64a2.14,2.14,0,0,0,1-1.66v-52.3a2,2,0,0,0-.28-.95l-5.39,3.11Z" style="fill:#f5f5f5"></path><path d="M160.13,256.28v-55.8l.56-.33c.31-.18.17-.68-.45-1a1.81,1.81,0,0,0-1.8-.26l-.56.26v57.08a.64.64,0,0,0,.3-.08l.26-.15A2.13,2.13,0,0,1,160.13,256.28Z" style="fill:#2058F2"></path><path d="M160.13,256.28v-55.8l.56-.33c.31-.18.17-.68-.45-1a1.81,1.81,0,0,0-1.8-.26l-.56.26v57.08a.64.64,0,0,0,.3-.08l.26-.15A2.13,2.13,0,0,1,160.13,256.28Z" style="opacity:0.1"></path><path d="M192.42,219.12l-31.57-18.23c-.38-.24-.71-.47-.72-.65v56.69a1.83,1.83,0,0,0,1,1.21l31.33,18.08c.79.46,1.44.09,1.43-.83V221.61A3.17,3.17,0,0,0,192.42,219.12Z" style="fill:#2058F2"></path><path d="M157.89,256.19V199.11a.34.34,0,0,1-.17,0l-.17-.1-.35-.2-.44-.25a.46.46,0,0,1-.24-.51.14.14,0,0,1,0-.07,1.22,1.22,0,0,1,.1-.24,1.37,1.37,0,0,1,.18-.24,1.79,1.79,0,0,1,.23-.25,2.37,2.37,0,0,1,.29-.25,1.41,1.41,0,0,1,.18-.14l.15-.1a3.17,3.17,0,0,1,.36-.23l-1.19.69a2.92,2.92,0,0,0-1.2,2.35v53.79a2.88,2.88,0,0,0,1.12,2.31l.59.34h0l.25.15h0A.42.42,0,0,0,157.89,256.19Z" style="fill:#2058F2"></path><path d="M199.91,214.79,198,213.67l-29.23-16.88a1.78,1.78,0,0,1-1.1.18,4.31,4.31,0,0,1-1.62-.54,3,3,0,0,1-1.06-1,1.46,1.46,0,0,1-.19-.94,5,5,0,0,0-2.37.75l-.55-1c1.32-.77,2.9-1.1,3.52-.74l.56.32c.32.19.45.4.3.48l-.26.15c-.28.17,0,.6.61,1a2.13,2.13,0,0,0,1.64.34l.26-.14c.15-.09.7.09,1.22.4L198,212.38l3.06,1.77h0a3,3,0,0,1,1,1.08l-1.1.63A2.92,2.92,0,0,0,199.91,214.79Z" style="fill:#2058F2"></path><path d="M199.91,214.79,198,213.67l-29.23-16.88a1.78,1.78,0,0,1-1.1.18,4.31,4.31,0,0,1-1.62-.54,3,3,0,0,1-1.06-1,1.46,1.46,0,0,1-.19-.94,5,5,0,0,0-2.37.75l-.55-1c1.32-.77,2.9-1.1,3.52-.74l.56.32c.32.19.45.4.3.48l-.26.15c-.28.17,0,.6.61,1a2.13,2.13,0,0,0,1.64.34l.26-.14c.15-.09.7.09,1.22.4L198,212.38l3.06,1.77h0a3,3,0,0,1,1,1.08l-1.1.63A2.92,2.92,0,0,0,199.91,214.79Z" style="opacity:0.30000000000000004"></path><path d="M192.43,219.12h0L190.47,218,168,205l-7.17-4.14c-.51-.29-.81-.6-.69-.7h0l.28-.17c.32-.18.06-.61-.56-1a1.49,1.49,0,0,0-1.42-.2l-.3.17a.49.49,0,0,1-.45.07l-.17-.1-.35-.2-.44-.25a.46.46,0,0,1-.24-.51.14.14,0,0,1,0-.07.76.76,0,0,1,.06-.16s0,0,0-.08a1.37,1.37,0,0,1,.18-.24,1.79,1.79,0,0,1,.23-.25,2.37,2.37,0,0,1,.29-.25,1.41,1.41,0,0,1,.18-.14l.15-.1a3.17,3.17,0,0,1,.36-.23l3.81-2.2.55,1-3.8,2.19-.29.19-.23.16,0,0a3.18,3.18,0,0,1,2.64.4,2.83,2.83,0,0,1,1,1,1.56,1.56,0,0,1,.18,1l.09.06.2.11,28.27,16.32,3.06,1.77h0a2.9,2.9,0,0,1,1,1.06l-1.1.64A3,3,0,0,0,192.43,219.12Z" style="fill:#2058F2"></path><path d="M192.43,219.12h0L190.47,218,168,205l-7.17-4.14c-.51-.29-.81-.6-.69-.7h0l.28-.17c.32-.18.06-.61-.56-1a1.49,1.49,0,0,0-1.42-.2l-.3.17a.49.49,0,0,1-.45.07l-.17-.1-.35-.2-.44-.25a.46.46,0,0,1-.24-.51.14.14,0,0,1,0-.07.76.76,0,0,1,.06-.16s0,0,0-.08a1.37,1.37,0,0,1,.18-.24,1.79,1.79,0,0,1,.23-.25,2.37,2.37,0,0,1,.29-.25,1.41,1.41,0,0,1,.18-.14l.15-.1a3.17,3.17,0,0,1,.36-.23l3.81-2.2.55,1-3.8,2.19-.29.19-.23.16,0,0a3.18,3.18,0,0,1,2.64.4,2.83,2.83,0,0,1,1,1,1.56,1.56,0,0,1,.18,1l.09.06.2.11,28.27,16.32,3.06,1.77h0a2.9,2.9,0,0,1,1,1.06l-1.1.64A3,3,0,0,0,192.43,219.12Z" style="opacity:0.30000000000000004"></path><path d="M193.42,276.33l1.12-.65a1,1,0,0,0,.43-.9V221h0s0,0,0,0a3,3,0,0,0-.43-1.41l-1.1.64a2.94,2.94,0,0,1,.42,1.42v2.24h0v51.53A1,1,0,0,1,193.42,276.33Z" style="fill:#2058F2"></path><path d="M193.42,276.33l1.12-.65a1,1,0,0,0,.43-.9V221h0s0,0,0,0a3,3,0,0,0-.43-1.41l-1.1.64a2.94,2.94,0,0,1,.42,1.42v2.24h0v51.53A1,1,0,0,1,193.42,276.33Z" style="opacity:0.2"></path><path d="M200.91,272l1.12-.65a1,1,0,0,0,.43-.9V216.64h0a2.92,2.92,0,0,0-.43-1.41l-1.1.63a2.94,2.94,0,0,1,.42,1.42v2.25h0v51.54A1,1,0,0,1,200.91,272Z" style="fill:#2058F2"></path><path d="M200.91,272l1.12-.65a1,1,0,0,0,.43-.9V216.64h0a2.92,2.92,0,0,0-.43-1.41l-1.1.63a2.94,2.94,0,0,1,.42,1.42v2.25h0v51.54A1,1,0,0,1,200.91,272Z" style="opacity:0.2"></path></g><g id="freepik--book--inject-79"><polygon points="159.85 203.82 188.97 220.85 189.12 276.68 159.99 259.65 159.85 203.82" style="fill:#2058F2"></polygon><path d="M188,221.77,159.85,205.4a11.71,11.71,0,0,1-6.43,3.53l28,16.31S183.18,224.82,188,221.77Z" style="fill:#f5f5f5"></path><path d="M178.67,225.13a6,6,0,0,0,5.41,0l4.73-2.74c1.49-.86,1.49-2.26,0-3.13L161,203.15l-1.17.67,27.32,16a1,1,0,0,1,0,1.88l-4.4,2.51a3.61,3.61,0,0,1-3.25,0l-27.31-15.94-1.33.77Z" style="fill:#2058F2"></path><path d="M178.67,225.13a6,6,0,0,0,5.41,0l4.73-2.74c1.49-.86,1.49-2.26,0-3.13L161,203.15l-1.17.67,27.32,16a1,1,0,0,1,0,1.88l-4.4,2.51a3.61,3.61,0,0,1-3.25,0l-27.31-15.94-1.33.77Z" style="fill:#fff;opacity:0.6000000000000001"></path><path d="M150.89,209l.14,55.84L178.82,281a5.94,5.94,0,0,0,5.4,0l4.74-2.74a1.89,1.89,0,0,0,1.11-1.56l-.14-55.83a1.9,1.9,0,0,1-1.12,1.56l-4.73,2.74a6,6,0,0,1-5.41,0Z" style="fill:#2058F2"></path><path d="M150.89,209l.14,55.84L178.82,281a5.94,5.94,0,0,0,5.4,0l4.74-2.74a1.89,1.89,0,0,0,1.11-1.56l-.14-55.83a1.9,1.9,0,0,1-1.12,1.56l-4.73,2.74a6,6,0,0,1-5.41,0Z" style="fill:#fff;opacity:0.4"></path><path d="M181.38,225.79a5.53,5.53,0,0,0,2.7-.64l4.73-2.74a1.9,1.9,0,0,0,1.12-1.56l.14,55.83a1.89,1.89,0,0,1-1.11,1.56L184.22,281a5.5,5.5,0,0,1-2.7.64Z" style="fill:#2058F2"></path><path d="M181.38,225.79a5.53,5.53,0,0,0,2.7-.64l4.73-2.74a1.9,1.9,0,0,0,1.12-1.56l.14,55.83a1.89,1.89,0,0,1-1.11,1.56L184.22,281a5.5,5.5,0,0,1-2.7.64Z" style="fill:#fff;opacity:0.7000000000000001"></path></g><g id="freepik--book--inject-79"><polygon points="151.16 214.55 178.17 230.34 178.3 282.1 151.3 266.32 151.16 214.55" style="fill:#2058F2"></polygon><polygon points="151.16 214.55 178.17 230.34 178.3 282.1 151.3 266.32 151.16 214.55" style="opacity:0.35000000000000003"></polygon><path d="M177.3,231.2,151.17,216a10.83,10.83,0,0,1-6,3.28l25.91,15.12S172.79,234,177.3,231.2Z" style="fill:#fff"></path><path d="M168.62,234.31a5.5,5.5,0,0,0,5,0l4.39-2.53c1.38-.8,1.38-2.1,0-2.9l-25.76-15-1.09.63,25.34,14.81a.92.92,0,0,1,0,1.74l-4.08,2.33a3.36,3.36,0,0,1-3,0l-25.32-14.78-1.23.71Z" style="fill:#2058F2"></path><path d="M168.62,234.31a5.5,5.5,0,0,0,5,0l4.39-2.53c1.38-.8,1.38-2.1,0-2.9l-25.76-15-1.09.63,25.34,14.81a.92.92,0,0,1,0,1.74l-4.08,2.33a3.36,3.36,0,0,1-3,0l-25.32-14.78-1.23.71Z" style="opacity:0.2"></path><path d="M142.86,219.35l.13,51.76,25.76,15a5.52,5.52,0,0,0,5,0l4.38-2.53a1.76,1.76,0,0,0,1-1.45l-.14-51.76a1.75,1.75,0,0,1-1,1.45l-4.39,2.54a5.53,5.53,0,0,1-5,0Z" style="fill:#2058F2"></path><path d="M142.86,219.35l.13,51.76,25.76,15a5.52,5.52,0,0,0,5,0l4.38-2.53a1.76,1.76,0,0,0,1-1.45l-.14-51.76a1.75,1.75,0,0,1-1,1.45l-4.39,2.54a5.53,5.53,0,0,1-5,0Z" style="opacity:0.30000000000000004"></path><path d="M171.12,234.92a5.23,5.23,0,0,0,2.51-.59l4.39-2.54a1.75,1.75,0,0,0,1-1.45l.14,51.76a1.76,1.76,0,0,1-1,1.45l-4.38,2.53a5.15,5.15,0,0,1-2.51.6Z" style="fill:#2058F2"></path><path d="M171.12,234.92a5.23,5.23,0,0,0,2.51-.59l4.39-2.54a1.75,1.75,0,0,0,1-1.45l.14,51.76a1.76,1.76,0,0,1-1,1.45l-4.38,2.53a5.15,5.15,0,0,1-2.51.6Z" style="opacity:0.1"></path><path d="M171.12,241.82v2.05a14.52,14.52,0,0,0,7.95-4.58v-2.06A14.53,14.53,0,0,1,171.12,241.82Z" style="fill:#455a64"></path><path d="M171.22,276.82v2.05a14.49,14.49,0,0,0,7.94-4.58v-2.06A14.5,14.5,0,0,1,171.22,276.82Z" style="fill:#455a64"></path></g><polygon points="244 171.33 203.46 147.91 23.03 252.12 23.03 256.57 63.56 280 244 175.78 244 171.33" style="fill:#37474f"></polygon><polygon points="63.56 275.55 244 171.33 203.46 147.91 23.03 252.12 63.56 275.55" style="fill:#455a64"></polygon><polygon points="63.56 275.55 63.56 280 23.03 256.57 23.03 252.12 63.56 275.55" style="fill:#e0e0e0"></polygon><g id="freepik--book--inject-79"><path d="M227.48,112.92v1.44s-.55-.51-.59-.87S227.48,112.92,227.48,112.92Z"></path><path d="M226.37,112.57a1.5,1.5,0,0,0,1.11,1.92c1.57.49,2.55,0,2.79.44s-7.44,4.87-7.44,4.87l1.46-6.36Z" style="fill:#2058F2"></path><path d="M226.37,112.57a1.5,1.5,0,0,0,1.11,1.92c1.57.49,2.55,0,2.79.44s-7.44,4.87-7.44,4.87l1.46-6.36Z" style="opacity:0.30000000000000004"></path><path d="M223.47,172v.1l-.76-.45-32.93-19,2.9-57.08c0-.92.5-1.37,1.12-1l1.12.65L225.71,113l0,.26Z" style="fill:#2058F2"></path><path d="M223.47,172v.1l-.76-.45-32.93-19,2.9-57.08c0-.92.5-1.37,1.12-1l1.12.65L225.71,113l0,.26Z" style="opacity:0.2"></path><path d="M219,121.56l-1.61-1.82,8.26-4.77c1.25.94,2.21,1.44,3.32,1Z" style="fill:#455a64"></path><path d="M225.23,114l-30.49-17.6a2.08,2.08,0,0,0-1.91,0l-8.15,4.7,30.92,17.7a2.8,2.8,0,0,1,2.24.39c.91.73.86-.2.86-.2l7-4C225.08,114.21,225.23,114,225.23,114Z" style="fill:#ebebeb"></path><path d="M218.41,121.18c-.32-.18-.45-.39-.3-.48l.25-.15c.29-.16,0-.59-.6-1a2.1,2.1,0,0,0-1.64-.35l-.26.15a2.12,2.12,0,0,1-1.22-.4l.19,57.18.77.44a.68.68,0,0,0,.45,0l.26-.15a2.15,2.15,0,0,1,1.64.35c.62.36.89.79.6.95l-.26.15c-.14.09,0,.3.31.48Z" style="fill:#2058F2"></path><path d="M218.41,121.18c-.32-.18-.45-.39-.3-.48l.25-.15c.29-.16,0-.59-.6-1a2.1,2.1,0,0,0-1.64-.35l-.26.15a2.12,2.12,0,0,1-1.22-.4l.19,57.18.77.44a.68.68,0,0,0,.45,0l.26-.15a2.15,2.15,0,0,1,1.64.35c.62.36.89.79.6.95l-.26.15c-.14.09,0,.3.31.48Z" style="fill:#fff;opacity:0.25"></path><path d="M215.6,176.53v.09l-.77-.44-32.93-19V101.76c0-.92.5-1.37,1.12-1l1.12.65,31.45,17.39Z" style="fill:#2058F2"></path><path d="M215.6,176.53v.09l-.77-.44-32.93-19V101.76c0-.92.5-1.37,1.12-1l1.12.65,31.45,17.39Z" style="fill:#fff;opacity:0.4"></path><path d="M218.05,178V120.79l2,.83v57.06a1.92,1.92,0,0,1-1.13-.12Z" style="fill:#2058F2"></path><path d="M218.05,178V120.79l2,.83v57.06a1.92,1.92,0,0,1-1.13-.12Z" style="fill:#fff;opacity:0.4"></path><path d="M231.09,172.1a.45.45,0,0,1,0,.11.17.17,0,0,1,0,.07.69.69,0,0,1-.07.15.3.3,0,0,1,0,.08,1,1,0,0,1-.17.25l-.23.25-.29.25c-.05.05-.12.09-.18.14l-.15.1c-.12.08-.24.16-.37.23l-7.09,4.1a6.9,6.9,0,0,1-2.39.85V121.62l11-6.6V172.1Z" style="fill:#2058F2"></path><g style="opacity:0.7000000000000001"><path d="M231.09,172.1a.45.45,0,0,1,0,.11.17.17,0,0,1,0,.07.69.69,0,0,1-.07.15.3.3,0,0,1,0,.08,1,1,0,0,1-.17.25l-.23.25-.29.25c-.05.05-.12.09-.18.14l-.15.1c-.12.08-.24.16-.37.23l-7.09,4.1a6.9,6.9,0,0,1-2.39.85V121.62l11-6.6V172.1Z" style="fill:#fff"></path></g><path d="M220.09,126.35v6.88a28.21,28.21,0,0,0,11-6.36V120A28.21,28.21,0,0,1,220.09,126.35Z" style="fill:#fafafa"></path><path d="M220.09,164.66v6.88a28.07,28.07,0,0,0,11-6.35v-6.88A28.07,28.07,0,0,1,220.09,164.66Z" style="fill:#fafafa"></path><path d="M222.48,120.77l-.55-1a5,5,0,0,1-2.36.74,1.44,1.44,0,0,0-.2-.93,2.88,2.88,0,0,0-1.06-1,4.27,4.27,0,0,0-1.61-.55.48.48,0,0,0-.12,0,1.8,1.8,0,0,0-1,.18l-29.21-16.86-1-.57-1.27-.73a.65.65,0,0,0-.68,0l-1.12.65a.66.66,0,0,1,.7,0h0l3.35,1.93L214.64,119a2.12,2.12,0,0,0,1.22.4l.26-.15a1,1,0,0,1,.58,0,3.28,3.28,0,0,1,1.06.39c.62.36.89.79.6,1l-.26.15c-.14.09,0,.3.31.48l.56.32C219.58,121.86,221.16,121.53,222.48,120.77Z" style="fill:#2058F2"></path><path d="M222.48,120.77l-.55-1a5,5,0,0,1-2.36.74,1.44,1.44,0,0,0-.2-.93,2.88,2.88,0,0,0-1.06-1,4.27,4.27,0,0,0-1.61-.55.48.48,0,0,0-.12,0,1.8,1.8,0,0,0-1,.18l-29.21-16.86-1-.57-1.27-.73a.65.65,0,0,0-.68,0l-1.12.65a.66.66,0,0,1,.7,0h0l3.35,1.93L214.64,119a2.12,2.12,0,0,0,1.22.4l.26-.15a1,1,0,0,1,.58,0,3.28,3.28,0,0,1,1.06.39c.62.36.89.79.6,1l-.26.15c-.14.09,0,.3.31.48l.56.32C219.58,121.86,221.16,121.53,222.48,120.77Z" style="fill:#fff;opacity:0.6000000000000001"></path><path d="M221.93,119.81l7.09-4.1.29-.18.23-.16,0,0a3.16,3.16,0,0,1-2.63-.41,2.65,2.65,0,0,1-1-1,1.45,1.45,0,0,1-.18-1l-.1-.06-.2-.11L197.17,96.47l-1.62-.93-.47-.27-1.37-.79a.66.66,0,0,0-.61,0l.31-.17.81-.47a.63.63,0,0,1,.57,0h0l.5.29.32.18.54.31.34.19.24.14.42.24,22.43,13,7.16,4.13c.51.29.81.6.69.7l0,0-.25.15c-.31.18-.06.61.56,1a1.52,1.52,0,0,0,1.42.2l.31-.18a.49.49,0,0,1,.44-.06l.17.09.35.21.44.25a.46.46,0,0,1,.24.51.25.25,0,0,1,0,.07.94.94,0,0,1-.06.15h0l0,.07a1.44,1.44,0,0,1-.18.25,2.61,2.61,0,0,1-.23.25l-.29.25a.83.83,0,0,1-.18.13l-.15.11a3.17,3.17,0,0,1-.36.23l-7.1,4.1Z" style="fill:#2058F2"></path><path d="M221.93,119.81l7.09-4.1.29-.18.23-.16,0,0a3.16,3.16,0,0,1-2.63-.41,2.65,2.65,0,0,1-1-1,1.45,1.45,0,0,1-.18-1l-.1-.06-.2-.11L197.17,96.47l-1.62-.93-.47-.27-1.37-.79a.66.66,0,0,0-.61,0l.31-.17.81-.47a.63.63,0,0,1,.57,0h0l.5.29.32.18.54.31.34.19.24.14.42.24,22.43,13,7.16,4.13c.51.29.81.6.69.7l0,0-.25.15c-.31.18-.06.61.56,1a1.52,1.52,0,0,0,1.42.2l.31-.18a.49.49,0,0,1,.44-.06l.17.09.35.21.44.25a.46.46,0,0,1,.24.51.25.25,0,0,1,0,.07.94.94,0,0,1-.06.15h0l0,.07a1.44,1.44,0,0,1-.18.25,2.61,2.61,0,0,1-.23.25l-.29.25a.83.83,0,0,1-.18.13l-.15.11a3.17,3.17,0,0,1-.36.23l-7.1,4.1Z" style="fill:#fff;opacity:0.6000000000000001"></path></g><g id="freepik--book--inject-79"><path d="M177.06,106.45l.05,1.61-.91-1A1,1,0,0,1,177.06,106.45Z" style="fill:#2058F2"></path><path d="M177.06,106.45l.05,1.61-.91-1A1,1,0,0,1,177.06,106.45Z" style="opacity:0.5"></path><path d="M212.1,129.45a3.18,3.18,0,0,0-1.43-2.49l-32.26-18.63.39,55.54v1.3L210.66,184c.79.46,1.44.09,1.44-.83Z" style="fill:#2058F2"></path><path d="M176,136.32l0-13-7.28-4.2v-9.79l4.9-2.82c.64-.37,2-.18,2,.17a8.14,8.14,0,0,0,1.3,1.11,12.16,12.16,0,0,0,2.67,1.16l.39,29.62Z" style="fill:#2058F2"></path><path d="M176,136.32l0-13-7.28-4.2v-9.79l4.9-2.82c.64-.37,2-.18,2,.17a8.14,8.14,0,0,0,1.3,1.11,12.16,12.16,0,0,0,2.67,1.16l.39,29.62Z" style="opacity:0.15"></path><path d="M171.58,113,176.9,110l-.11,0a3,3,0,0,1-1.06-1,1.49,1.49,0,0,1-.27-.89l-6.26,3.61Z" style="fill:#37474f"></path><path d="M179.51,110.29a1.85,1.85,0,0,1-1.1.17,3.19,3.19,0,0,1-.6-.12l-.18,0-.21-.08-.18-.07-.34-.17L171.61,113l1.58.9,0,0Z" style="fill:#e0e0e0"></path><path d="M173.57,106.53c.64-.37,2-.18,2,.17h0l-.07,1.35-4,2.33h-2.26l-.5-.42v-.6Z" style="opacity:0.4"></path><path d="M204.62,132.11l6.06-3.5a1.89,1.89,0,0,0-.68-.72l-3.53-2-27-15.56L173.16,114Z" style="fill:#ebebeb"></path><path d="M205.42,186.11l4.58-2.64a2.11,2.11,0,0,0,1-1.66V129.55a1.89,1.89,0,0,0-.28-.94l-5.38,3.11Z" style="fill:#f5f5f5"></path><path d="M170.92,168.42V112.66l.56-.33c.31-.18.17-.68-.45-1a1.81,1.81,0,0,0-1.8-.26l-.56.26v57a.7.7,0,0,0,.3-.08l.26-.15A2.16,2.16,0,0,1,170.92,168.42Z" style="fill:#2058F2"></path><path d="M170.92,168.42V112.66l.56-.33c.31-.18.17-.68-.45-1a1.81,1.81,0,0,0-1.8-.26l-.56.26v57a.7.7,0,0,0,.3-.08l.26-.15A2.16,2.16,0,0,1,170.92,168.42Z" style="opacity:0.1"></path><path d="M203.18,131.28l-31.55-18.21c-.38-.24-.71-.48-.71-.65v56.65a1.81,1.81,0,0,0,1,1.21l31.3,18.07c.8.45,1.44.08,1.44-.83V133.77A3.19,3.19,0,0,0,203.18,131.28Z" style="fill:#2058F2"></path><path d="M168.67,168.33v-57a.35.35,0,0,1-.17,0l-.16-.1L168,111l-.43-.25a.44.44,0,0,1-.24-.51.17.17,0,0,1,0-.07,1,1,0,0,1,.11-.23,1,1,0,0,1,.17-.25,2.73,2.73,0,0,1,.23-.25l.29-.25.18-.14.15-.1c.12-.08.24-.16.37-.23l-1.2.69a3,3,0,0,0-1.2,2.35v53.75a2.91,2.91,0,0,0,1.12,2.31l.59.34h0l.24.14h0A.53.53,0,0,0,168.67,168.33Z" style="fill:#2058F2"></path><path d="M210.66,127l-1.95-1.12L179.51,109a1.8,1.8,0,0,1-1.11.18,4.15,4.15,0,0,1-1.61-.54,3,3,0,0,1-1.06-1,1.44,1.44,0,0,1-.19-.93,5,5,0,0,0-2.37.74l-.55-1c1.32-.76,2.9-1.09,3.52-.73l.56.32c.32.18.45.39.3.48l-.26.14c-.28.17,0,.6.61,1A2.14,2.14,0,0,0,179,108l.26-.15c.15-.09.69.09,1.22.4l28.24,16.3,3.06,1.77h0a3.07,3.07,0,0,1,1,1.07l-1.11.64A2.92,2.92,0,0,0,210.66,127Z" style="fill:#2058F2"></path><path d="M210.66,127l-1.95-1.12L179.51,109a1.8,1.8,0,0,1-1.11.18,4.15,4.15,0,0,1-1.61-.54,3,3,0,0,1-1.06-1,1.44,1.44,0,0,1-.19-.93,5,5,0,0,0-2.37.74l-.55-1c1.32-.76,2.9-1.09,3.52-.73l.56.32c.32.18.45.39.3.48l-.26.14c-.28.17,0,.6.61,1A2.14,2.14,0,0,0,179,108l.26-.15c.15-.09.69.09,1.22.4l28.24,16.3,3.06,1.77h0a3.07,3.07,0,0,1,1,1.07l-1.11.64A2.92,2.92,0,0,0,210.66,127Z" style="opacity:0.30000000000000004"></path><path d="M203.19,131.29h0l-2-1.12-22.43-13-7.17-4.13c-.51-.29-.81-.6-.69-.7s0,0,0,0l.29-.16c.31-.18.06-.61-.56-1a1.49,1.49,0,0,0-1.42-.2l-.31.17a.49.49,0,0,1-.45.07l-.16-.1L168,111l-.43-.25a.44.44,0,0,1-.24-.51.17.17,0,0,1,0-.07.77.77,0,0,1,.07-.16.16.16,0,0,1,0-.07,1,1,0,0,1,.17-.25,2.73,2.73,0,0,1,.23-.25l.29-.25.18-.14.15-.1c.12-.08.24-.16.37-.23l3.8-2.2.55,1-3.8,2.2a2.82,2.82,0,0,0-.29.18l-.23.16,0,0a3.18,3.18,0,0,1,2.64.4,2.83,2.83,0,0,1,1,1,1.5,1.5,0,0,1,.18,1l.09.06.2.11,28.25,16.31,3.05,1.76s0,0,0,0l0,0a2.82,2.82,0,0,1,1,1.06l-1.11.63A2.93,2.93,0,0,0,203.19,131.29Z" style="fill:#2058F2"></path><path d="M203.19,131.29h0l-2-1.12-22.43-13-7.17-4.13c-.51-.29-.81-.6-.69-.7s0,0,0,0l.29-.16c.31-.18.06-.61-.56-1a1.49,1.49,0,0,0-1.42-.2l-.31.17a.49.49,0,0,1-.45.07l-.16-.1L168,111l-.43-.25a.44.44,0,0,1-.24-.51.17.17,0,0,1,0-.07.77.77,0,0,1,.07-.16.16.16,0,0,1,0-.07,1,1,0,0,1,.17-.25,2.73,2.73,0,0,1,.23-.25l.29-.25.18-.14.15-.1c.12-.08.24-.16.37-.23l3.8-2.2.55,1-3.8,2.2a2.82,2.82,0,0,0-.29.18l-.23.16,0,0a3.18,3.18,0,0,1,2.64.4,2.83,2.83,0,0,1,1,1,1.5,1.5,0,0,1,.18,1l.09.06.2.11,28.25,16.31,3.05,1.76s0,0,0,0l0,0a2.82,2.82,0,0,1,1,1.06l-1.11.63A2.93,2.93,0,0,0,203.19,131.29Z" style="opacity:0.30000000000000004"></path><path d="M204.17,188.45l1.13-.65a1,1,0,0,0,.42-.9V133.13h0a2.94,2.94,0,0,0-.42-1.41l-1.11.64a3,3,0,0,1,.43,1.42V136h0v51.5A1,1,0,0,1,204.17,188.45Z" style="fill:#2058F2"></path><path d="M204.17,188.45l1.13-.65a1,1,0,0,0,.42-.9V133.13h0a2.94,2.94,0,0,0-.42-1.41l-1.11.64a3,3,0,0,1,.43,1.42V136h0v51.5A1,1,0,0,1,204.17,188.45Z" style="opacity:0.2"></path><path d="M211.66,184.13l1.13-.65a1,1,0,0,0,.42-.9V128.81h0a3.05,3.05,0,0,0-.42-1.41l-1.11.64a2.94,2.94,0,0,1,.42,1.42v2.24h0v51.49A1,1,0,0,1,211.66,184.13Z" style="fill:#2058F2"></path><path d="M211.66,184.13l1.13-.65a1,1,0,0,0,.42-.9V128.81h0a3.05,3.05,0,0,0-.42-1.41l-1.11.64a2.94,2.94,0,0,1,.42,1.42v2.24h0v51.49A1,1,0,0,1,211.66,184.13Z" style="opacity:0.2"></path></g><g id="freepik--book--inject-79"><polygon points="170.32 123.63 200.67 141.37 192.35 194.71 162 176.97 170.32 123.63" style="fill:#2058F2"></polygon><path d="M199.48,142.21l-29.39-17.07a16,16,0,0,1-7.8,3l29.12,17S193.51,144.87,199.48,142.21Z" style="fill:#fff"></path><path d="M188.37,144.94a7.78,7.78,0,0,0,6.11.29l5.77-2.37c1.82-.75,2-2.09.47-3l-29-16.82-1.43.58,28.47,16.64c.93.54.81,1.35-.29,1.79l-5.35,2.18a4.66,4.66,0,0,1-3.67-.18L161,127.45l-1.62.67Z" style="fill:#2058F2"></path><path d="M188.37,144.94a7.78,7.78,0,0,0,6.11.29l5.77-2.37c1.82-.75,2-2.09.47-3l-29-16.82-1.43.58,28.47,16.64c.93.54.81,1.35-.29,1.79l-5.35,2.18a4.66,4.66,0,0,1-3.67-.18L161,127.45l-1.62.67Z" style="fill:#fff;opacity:0.6000000000000001"></path><path d="M159.41,128.12l-8.32,53.34,29,16.82a7.82,7.82,0,0,0,6.11.28l5.77-2.37c.9-.37,1.41-.89,1.49-1.43l8.33-53.34c-.09.54-.59,1.06-1.5,1.44l-5.77,2.37a7.78,7.78,0,0,1-6.11-.29Z" style="fill:#2058F2"></path><path d="M159.41,128.12l-8.32,53.34,29,16.82a7.82,7.82,0,0,0,6.11.28l5.77-2.37c.9-.37,1.41-.89,1.49-1.43l8.33-53.34c-.09.54-.59,1.06-1.5,1.44l-5.77,2.37a7.78,7.78,0,0,1-6.11-.29Z" style="fill:#fff;opacity:0.4"></path><path d="M191.33,145.71a7.49,7.49,0,0,0,3.15-.48l5.77-2.37c.91-.38,1.41-.9,1.5-1.44l-8.33,53.34c-.08.54-.59,1.06-1.49,1.43l-5.77,2.37A7.54,7.54,0,0,1,183,199Z" style="fill:#2058F2"></path><path d="M191.33,145.71a7.49,7.49,0,0,0,3.15-.48l5.77-2.37c.91-.38,1.41-.9,1.5-1.44l-8.33,53.34c-.08.54-.59,1.06-1.49,1.43l-5.77,2.37A7.54,7.54,0,0,1,183,199Z" style="fill:#fff;opacity:0.7000000000000001"></path></g><polygon points="67.42 188.95 26.88 165.54 23.03 167.77 23.03 334.98 63.56 358.39 67.42 356.16 67.42 188.95" style="fill:#37474f"></polygon><polygon points="23.03 334.98 63.56 358.39 63.56 191.17 23.03 167.77 23.03 334.98" style="fill:#263238"></polygon><polygon points="247.86 80.31 207.32 56.9 23.03 163.32 23.03 167.77 63.56 191.17 247.86 84.76 247.86 80.31" style="fill:#37474f"></polygon><polygon points="63.56 186.72 247.86 80.31 207.32 56.9 23.03 163.32 63.56 186.72" style="fill:#455a64"></polygon><polygon points="63.56 186.72 63.56 191.17 23.03 167.77 23.03 163.32 63.56 186.72" style="fill:#263238"></polygon></g><g id="freepik--picture--inject-79"><polygon points="141.7 131.01 191.55 102.15 173.8 91.9 123.95 120.75 141.7 131.01" style="fill:#263238"></polygon><g id="freepik--frame--inject-79"><polygon points="144.01 120.95 146.06 121.94 183.97 100.05 181.93 99.06 144.01 120.95" style="fill:#fafafa"></polygon><polygon points="181.93 99.06 145.86 119.88 140.61 65.93 176.68 45.13 181.93 99.06" style="fill:#fff"></polygon><path d="M181.64,38.22,136.76,64.13l6.18,63.63,44.89-25.91ZM184,100.05l-37.91,21.89-5.45-56L178.53,44Z" style="fill:#f0f0f0"></path><polygon points="183.97 100.05 181.93 99.06 176.68 45.13 178.53 44.04 183.97 100.05" style="fill:#e0e0e0"></polygon><polygon points="181.64 38.22 179.57 37.26 134.68 63.18 136.76 64.14 181.64 38.22" style="fill:#fafafa"></polygon><polygon points="134.68 63.18 136.76 64.14 142.94 127.76 140.87 126.8 134.68 63.18" style="fill:#e0e0e0"></polygon></g><g id="freepik--land--inject-79"><polygon points="180.34 98.04 147.09 117.23 146.21 108.14 152.39 81.45 158.28 90.56 157.06 98.23 166.9 69.91 179.46 88.95 180.34 98.04" style="fill:#2058F2"></polygon><path d="M151.88,70.21a4.68,4.68,0,0,0-2.2,4.1c.15,1.49,1.36,2.06,2.72,1.27a4.68,4.68,0,0,0,2.2-4.11C154.46,70,153.24,69.42,151.88,70.21Z" style="fill:#2058F2"></path></g><g id="freepik--land--inject-79" style="opacity:0.4"><polygon points="180.34 98.04 147.09 117.23 146.21 108.14 152.39 81.45 158.28 90.56 157.06 98.23 166.9 69.91 179.46 88.95 180.34 98.04" style="fill:#fff"></polygon><path d="M151.88,70.21a4.68,4.68,0,0,0-2.2,4.1c.15,1.49,1.36,2.06,2.72,1.27a4.68,4.68,0,0,0,2.2-4.11C154.46,70,153.24,69.42,151.88,70.21Z" style="fill:#fff"></path></g></g><g id="freepik--Table--inject-79"><g id="freepik--shadow--inject-79"><path id="freepik--shadow--inject-79" d="M69.24,173.94a30.7,30.7,0,0,1-16.82-4.58c-3.93-2.61-6.09-5.87-6.09-9.18s2.16-6.58,6.09-9.19a30.7,30.7,0,0,1,16.82-4.58A30.68,30.68,0,0,1,86.06,151c3.93,2.61,6.09,5.87,6.09,9.19s-2.16,6.57-6.09,9.18A30.68,30.68,0,0,1,69.24,173.94Z" style="fill:#263238"></path></g><g id="freepik--Lamp--inject-79"><path d="M84.28,159.08a5.42,5.42,0,0,0-.11-1.2,17.87,17.87,0,0,0-7.27-10.83H61.71a17.83,17.83,0,0,0-7.27,10.83,4.89,4.89,0,0,0-.12,1.2,1.8,1.8,0,0,0,0,.2c.14,2.1,1.58,4.18,4.36,5.78,5.86,3.38,15.35,3.38,21.2,0,2.78-1.6,4.22-3.68,4.36-5.78A1.8,1.8,0,0,0,84.28,159.08Z" style="fill:#37474f"></path><path d="M62.1,146.8c-4,2.3-4,6,0,8.32a15.91,15.91,0,0,0,14.41,0c4-2.3,4-6,0-8.32A16,16,0,0,0,62.1,146.8Z" style="fill:#455a64"></path><path d="M71.37,88.78H67.23v60.59h0a1,1,0,0,0,.59.95,3.28,3.28,0,0,0,2.93,0,1,1,0,0,0,.59-.95h0Z" style="fill:#37474f"></path><path d="M38.65,80.73h0L53.08,43.92H85.53L100,80.73h0c2.06,5.76-.77,12-8.51,16.45-12.22,7.06-32,7.06-44.28,0C39.42,92.71,36.6,86.49,38.65,80.73Z" style="fill:#2058F2"></path><g style="opacity:0.4"><path d="M38.65,80.73h0L53.08,43.92H85.53L100,80.73h0c2.06,5.76-.77,12-8.51,16.45-12.22,7.06-32,7.06-44.28,0C39.42,92.71,36.6,86.49,38.65,80.73Z" style="fill:#fff"></path></g><path d="M54.62,87.72C48.74,78.17,56.26,60.09,61.79,45V43.92H53.08L38.64,80.73h0c-2,5.76.77,12,8.51,16.45,12.23,7.06,32.06,7.06,44.28,0C80.39,101.51,60.5,97.27,54.62,87.72Z" style="fill:#2058F2;opacity:0.2"></path><path d="M81,52.73c-6.48,3.75-17,3.75-23.48,0s-6.49-9.81,0-13.56,17-3.74,23.48,0S87.53,49,81,52.73Z" style="fill:#2058F2"></path><g style="opacity:0.6000000000000001"><path d="M81,52.73c-6.48,3.75-17,3.75-23.48,0s-6.49-9.81,0-13.56,17-3.74,23.48,0S87.53,49,81,52.73Z" style="fill:#fff"></path></g><path d="M69.3,53.61a21.89,21.89,0,0,0,10.78-2.55C82.6,49.61,84,47.8,84,46s-1.38-3.66-3.9-5.11A22,22,0,0,0,69.3,38.29a22,22,0,0,0-10.78,2.55c-2.51,1.45-3.9,3.27-3.9,5.11s1.39,3.66,3.9,5.11A21.89,21.89,0,0,0,69.3,53.61Z" style="fill:#2058F2"></path></g></g><g id="freepik--Mirror--inject-79"><polygon points="152.37 139.9 67.42 188.95 67.42 351.59 152.37 302.55 152.37 139.9" style="fill:#fafafa"></polygon><g id="freepik--Character--inject-79" style="opacity:0.45"><path d="M146.49,258.9v39l-2,1.13-3.59-3.2c-6.42-5.82-13-12-13-12l-2.34-29.38-.48-6.09C134.6,250.19,139.36,252.26,146.49,258.9Z" style="fill:#f28f8f"></path><g id="freepik--Top--inject-79"><path d="M141.37,300.84l-39.64,22.9h0L79.89,336.34l-1.33.77h0l-5.25,3V250.23c3.42-.61,7.14-1.17,10.71-1.61,3-.37,5.84-.66,8.31-.85a127.28,127.28,0,0,1,21.29-.48c2.63.16,5.59.4,9,.75l2.52.28a74.38,74.38,0,0,1,11.2,20.78,63.93,63.93,0,0,1,3,12.1c.62,4.39,1.17,9.54,1.62,14.62C141.09,297.51,141.24,299.19,141.37,300.84Z" style="fill:#2058F2"></path><path d="M101.71,323.75,79.89,336.34l-1.33.77c1.07-1,2.2-2,3.36-3h0a53.36,53.36,0,0,1,7.31-5.06A58,58,0,0,1,101.71,323.75Z" style="opacity:0.1"></path><g id="freepik--Arm--inject-79"><path d="M144.47,244a9.32,9.32,0,0,0,2,6.84v30.92c-4.23-5.5-7.54-9.59-9.91-12.35l-.27-.31a165,165,0,0,1-10.72-14.69c-.71-1.08-1.24-1.87-1.55-2.26a8.19,8.19,0,0,1-1.45-4.11,6.66,6.66,0,0,1,.22-2v0q.08-.27.18-.54a2.92,2.92,0,0,1,.13-.34c.1-.26.23-.52.36-.78l.3-.52a.57.57,0,0,1,.08-.13l.08-.13a2.8,2.8,0,0,1,.37-.5c.18-.24.37-.47.58-.7a14.14,14.14,0,0,1,1.81-1.7l.42-.31c.24-.18.47-.36.69-.56a16.49,16.49,0,0,0,1.27-1.24c.21-.22.4-.44.59-.66.33-.41.66-.83.95-1.27.1-.13.19-.27.29-.42s.35-.55.51-.83a1.4,1.4,0,0,0,.17-.28c.16-.29.33-.58.48-.88s.33-.65.48-1a24,24,0,0,0,.95-2.29c.14-.38.27-.76.39-1.15s.2-.62.3-.95a4.19,4.19,0,0,0,.14-.47c.1-.31.17-.62.25-.93s.14-.53.2-.8c.12-.48.23-1,.32-1.45s.15-.75.22-1.12.1-.52.13-.76c.11-.58.19-1.16.27-1.74s.13-1,.19-1.53c0-.33.08-.66.11-1,.07-.74.13-1.47.18-2.18,0-.29,0-.57,0-.86.07-1.14.11-2.24.13-3.29l0-.31c0-.12,0-.23,0-.36.06-.71.14-1.57.27-2.47,0-.23.07-.46.11-.7v0c.08-.49.19-1,.29-1.46,0-.16.09-.32.13-.48s.15-.5.23-.73.17-.47.27-.69a2.64,2.64,0,0,1,.18-.38,2.74,2.74,0,0,1,.19-.34h0a2.4,2.4,0,0,1,.25-.37,2,2,0,0,1,.24-.31l.15-.15.22-.2.34-.22.23-.11.13,0a2.85,2.85,0,0,1,2.24.27c.44.21.29,1.53.17,3.84h0c0,.59-.05,1.24-.06,2,1.07-1,2.89-.95,3.19,0a20.51,20.51,0,0,1,.48,4.12c0,1.77.43,4.51.79,7.35v11.24C145.76,235.77,144.86,240.42,144.47,244Z" style="fill:#ffa8a7"></path><path d="M122.82,246a10.66,10.66,0,0,1,4.32-5.68c7.52-5.71,9.08-18.69,9.25-27.63.21-2.6.63-8.46,3.29-9.36,1,6.09.54,19-1,26.87-1.64,8.24-6.1,13.51-9.44,14.92A19,19,0,0,1,122.82,246Z" style="fill:#f28f8f"></path><path d="M142,209.41c-1.84.87-2,9.62-2,9.62a65.05,65.05,0,0,1-.1-7.58c.66-3.51,2.21-4,2.21-4Z" style="fill:#f28f8f"></path></g><g id="freepik--Head--inject-79"><path d="M146.49,185.17v3.1a3.83,3.83,0,0,1-3.71,1.18,7.28,7.28,0,0,1,.41,6.16,6.57,6.57,0,0,1-4.69,3.92,6,6,0,0,1-1.66.15c-.19.64-.34,1.26-.5,1.86a10,10,0,0,1-.62,1.65h0a5.27,5.27,0,0,1-.8,1.23A14.34,14.34,0,0,1,133,206.3a9,9,0,0,1-2.44,1.45c-.35.14-.7.26-1,.38a33.46,33.46,0,0,1-4.7,1.22c-1.5.31-3,.53-4.53.73-2.24.3-4.5.52-6.74.79s-4.53.57-6.81.84c-.39,0-2.42,0-2.69.33L91.81,227.19l-.9,1.13-4.86,6a16.69,16.69,0,0,0-.76-3.66,34,34,0,0,0-2.33-5.5c-2.22-4.37-5.09-8.67-6.66-12.44-.7-1.67-1.31-3.23-1.8-4.73a33,33,0,0,1-1.2-4.4v-8.54a8.83,8.83,0,0,1,.3-1l51.51-29.74c.4.11.8.23,1.2.38a6.63,6.63,0,0,1,4.46,7.87c5.4-2.47,9.85,1.56,10.08,4.64.17,2.28-.47,4.13.84,6.26A3.8,3.8,0,0,0,146.49,185.17Z" style="fill:#263238"></path><path d="M138,209.87c.75,7.65-.18,17.55-2.53,23.65-1.74,4.55-5.18,10-14.12,10.25-3.38.08-7.47-.22-7.47-.22l-.71,8.07c3.28,4.66,5.83,10.8-3.11,12.31-6.91,1.17-22.12-1.87-26.31-12.53l2-27.34a7.47,7.47,0,0,1-7.56.43,10,10,0,0,1-4.91-7.35v-5.5a12.89,12.89,0,0,1,2-4.91c2.66-3.9,8.57-2.73,11,.31s2.26,6.15,4.76,6.43c3.48.38,3.65-5,3.55-7.14,6-2.53,7.59-8.13,6.71-16.1,13.84-7,29.78-4.49,35.49.93,1,4.45,2.47,7.72,1.5,12.85A21.3,21.3,0,0,0,138,209.87Z" style="fill:#ffa8a7"></path><path d="M118.41,229.14a3.89,3.89,0,0,0-1-1.5,6.08,6.08,0,0,0-1.74-1.24,4,4,0,0,0-4,0,.46.46,0,0,0-.22.26.31.31,0,0,0,.22.33,16,16,0,0,0,2,.26,7.1,7.1,0,0,1,1.75.66,4.44,4.44,0,0,1,1.38,1.09c.3.38.53.81.83,1.19.11.15.26.38.47.37a.39.39,0,0,0,.35-.35A2.87,2.87,0,0,0,118.41,229.14Z" style="fill:#b16668"></path><path d="M113.94,243.53c-8.73-1.76-15.36-3.26-19.43-10A38.83,38.83,0,0,1,90.73,223s-.42,7.47,2,13c1.89,4.26,7.15,8.11,20.88,10.43Z" style="fill:#f28f8f"></path><path d="M114.41,208.37a2.61,2.61,0,1,1-2.34-3A2.66,2.66,0,0,1,114.41,208.37Z" style="fill:#263238"></path><path d="M105.32,202.58l4.45-4.14a3.18,3.18,0,0,1-.18,4.41A3,3,0,0,1,105.32,202.58Z" style="fill:#263238"></path><path d="M132.38,198.27l4.72,3.91a2.94,2.94,0,0,1-4.24.5A3.22,3.22,0,0,1,132.38,198.27Z" style="fill:#263238"></path><path d="M134.62,209.09a2.61,2.61,0,1,1-2.34-3A2.64,2.64,0,0,1,134.62,209.09Z" style="fill:#263238"></path><path d="M130.07,218l-8.57,4.14-1.69-16.45C122.66,205.56,126.65,211.22,130.07,218Z" style="fill:#f28f8f"></path></g></g></g><g style="opacity:0.1"><polygon points="67.42 209.61 67.42 221.43 90.16 175.81 81.89 180.59 67.42 209.61" style="fill:#2058F2"></polygon><polygon points="118.85 159.25 101.33 169.37 67.42 237.36 67.42 262.37 118.85 159.25" style="fill:#2058F2"></polygon><polygon points="152.37 162.31 67.42 332.64 67.42 351.59 76.76 346.2 152.37 194.59 152.37 162.31" style="fill:#2058F2"></polygon><polygon points="152.32 139.93 144.05 144.71 67.42 298.36 67.42 310.17 152.32 139.93" style="fill:#2058F2"></polygon><polygon points="152.37 265.01 126.08 317.72 148.7 304.67 152.37 297.3 152.37 265.01" style="fill:#2058F2"></polygon><polygon points="152.37 236.79 106.32 329.13 114.59 324.36 152.37 248.61 152.37 236.79" style="fill:#2058F2"></polygon></g></g><polygon points="156.22 137.31 156.22 303.72 152.37 305.79 152.37 139.53 156.22 137.31" style="fill:#37474f"></polygon></g></g><g id="freepik--Scale--inject-79"><g id="freepik--weighing-machine--inject-79"><path d="M251,360.27c0-1-.74-2.07-2.18-2.89l-54.06-31.22c-12.7-7.33-31.91-8.13-42.91-1.78l-48,27.71c-5,2.88-7.43,6.74-7.42,10.78,0,1.51,0,7.43,0,8.92,0,4.87,3.52,10,10.47,14L161,417c2.63,1.52,6.61,1.69,8.89.37l79.56-45.93a2.62,2.62,0,0,0,1.54-2.27C251,368.19,251,361.11,251,360.27Z" style="fill:#2058F2"></path><path d="M166.23,409.34v8.92A10.37,10.37,0,0,1,161,417L107,385.81c-6.94-4-10.49-9.16-10.47-14,0-1.49,0-7.41,0-8.93,0,4.87,3.57,10,10.51,14L161,408.08A10.6,10.6,0,0,0,166.23,409.34Z" style="opacity:0.2"></path><path d="M249.49,362.51l-79.56,45.93c-2.28,1.32-6.26,1.15-8.89-.37L107,376.86c-12.7-7.33-14.08-18.42-3.08-24.77l48-27.71c11-6.35,30.21-5.55,42.91,1.78l54.06,31.22C251.49,358.9,251.77,361.19,249.49,362.51Z" style="fill:#2058F2"></path><g style="opacity:0.30000000000000004"><path d="M249.49,362.51l-79.56,45.93c-2.28,1.32-6.26,1.15-8.89-.37L107,376.86c-12.7-7.33-14.08-18.42-3.08-24.77l48-27.71c11-6.35,30.21-5.55,42.91,1.78l54.06,31.22C251.49,358.9,251.77,361.19,249.49,362.51Z" style="fill:#fff"></path></g><path d="M188,329.4l50.56,29.19c1.47.85,1.47,2.22,0,3.07l-70.07,40.46a5.87,5.87,0,0,1-5.32,0l-50.56-29.19c-8.94-5.16-8.94-13.53,0-18.69h0a5.87,5.87,0,0,1,5.32,0L129.66,361a5.87,5.87,0,0,0,5.32,0l32.38-18.69c1.47-.85,1.47-2.22,0-3.07l-11.75-6.79c-1.47-.85-1.47-2.22,0-3.07h0C164.55,324.24,179,324.24,188,329.4Z" style="fill:#37474f"></path><path d="M163.83,341.19,133,359c-7.91-4.57-7.43-12.25,1.09-17.17S155.92,336.63,163.83,341.19Z" style="fill:#fafafa"></path><path d="M140.5,347a.71.71,0,0,1,0-1.35l.16-.09a2.54,2.54,0,0,1,2.34,0l6.67,3.85-2.5,1.45Z" style="fill:#2058F2"></path></g></g><g id="freepik--character--inject-79"><g id="freepik--character--inject-79"><path d="M344.41,227c-13.55,2.67-18.31,5.7-31.43,19.71s-47.37,49.79-47.37,49.79,2.82,7.73,20.27,6.37,25.69-10.48,32.75-16.42c7.9-6.64,22.69-20.58,22.69-20.58Z" style="fill:#f28f8f"></path><g id="freepik--top--inject-79"><path d="M429.45,319.72c-4.28,32.72-12.38,58.66-32.2,75.37l-76.09-59.65,2.13-38.88Z" style="fill:#455a64"></path><path d="M409.2,230.76a210.46,210.46,0,0,0-28.86-4.34c-8.52-.65-16.06-1.65-35.93.61,0,0-12.59,15.3-15.57,36-2.35,16.34-3.61,42.26-3.61,42.26-.74,10.55-.78,18.46-.68,23.95,8,7.05,26.41,9.73,47.17,12.55,16.88,2.3,37.62,16,44.08,29.9,10-17.07,13.38-45.45,14.64-57.18,1.41-13.22,1.77-25.57-1-40.43C423.56,242.91,417.72,232.85,409.2,230.76Z" style="fill:#2058F2"></path><path d="M405.61,336.57a66.12,66.12,0,0,0-21.89-21,67,67,0,0,0-29.24-8.59A51.38,51.38,0,0,0,337,308.47c-1.31.38-.5,2.56.7,2.4,10.13-1.31,20.13-1.5,30.08,1.12a70.85,70.85,0,0,1,26.4,13.8,62.77,62.77,0,0,1,11,11.35C405.42,337.48,405.78,336.83,405.61,336.57Z" style="opacity:0.1"></path><g id="freepik--arm--inject-79"><path d="M345.58,231.23c3.09-4.71,1.56-9.3-3.39-13-8.25-6.26-10-20.48-10.14-30.28-.29-3.51-.92-12.45-6.07-10-.6.29-.19,2.5-.11,6.37-1.18-1.09-3.17-1-3.51,0a21.78,21.78,0,0,0-.51,4.51c-.09,3.94-1.76,12.28-1.55,17,.83,4.15,2.34,11.27,2.88,16.39a10.05,10.05,0,0,1-3.35,8.67c-4.56,4-9.47,7.34-17.3,13-9.73,7-16.82,11-26.88,19.2-8.22,6.7-10.4,13.18-11.33,24.86-.89,11,5.13,13.1,11.6,13.39C290,302,296,297.93,304,286.75c13.17-18.47,22.63-30.53,27.85-36.6C338.15,242.82,344.18,233.05,345.58,231.23Z" style="fill:#ffa8a7"></path><path d="M346.92,224.48a11.82,11.82,0,0,0-4.73-6.22c-8.25-6.26-10-20.48-10.14-30.28-.24-2.84-.69-9.27-3.61-10.26-1.1,6.68-.59,20.87,1.12,29.46,1.81,9,6.69,14.8,10.36,16.35A20.84,20.84,0,0,0,346.92,224.48Z" style="fill:#f28f8f"></path><path d="M325.87,184.39c2,1,2.23,10.54,2.23,10.54s.4-6.74.11-8.3c-.72-3.85-2.42-4.4-2.42-4.4Z" style="fill:#f28f8f"></path></g><g id="freepik--head--inject-79"><path d="M387.21,211.71c.69-7.88,7.76-16.62,10.69-23.67,2.83-6.81,4.42-12,3.54-18.15-.52-3.62-3.21-8.36-6-9.18,2-13.77-8.63-19.22-14.12-20.07a57.9,57.9,0,0,1-7.62-1.47c-3-1-3.89-3.29-6.41-5.1-4.35-3.13-11.2-2.65-13.39,2.79-3-3.28-6.65-2.89-10.8-1.47a7.27,7.27,0,0,0-4.89,8.63c-5.92-2.71-10.8,1.72-11,5.09-.19,2.49.51,4.53-.92,6.86-1.62,2.63-5.05,2.87-6.25.95-.3,3.54,1.28,6.09,5.05,5.59a8,8,0,0,0-.44,6.75,7.26,7.26,0,0,0,6.95,4.46c.56,1.88.78,3.63,2.12,5.19a12.69,12.69,0,0,0,4.78,3.66c6,2.27,12.38,2.64,18.66,3.42l7.46.92c.43.05,2.66,0,2.95.37Z" style="fill:#263238"></path><path d="M395.81,200.89a8.19,8.19,0,0,1-8.29-.48l2.16,30c-4.59,11.69-21.26,15-28.84,13.74-9.8-1.65-7-8.39-3.41-13.49l-.78-8.85s-4.49.33-8.18.25c-9.81-.23-13.57-6.26-15.49-11.25-2.56-6.67-3.59-17.53-2.77-25.91a22.7,22.7,0,0,0-.19-6.43c-1-5.62.57-9.2,1.65-14.08,6.27-5.94,23.74-8.64,38.91-1-1,8.74.81,14.89,7.34,17.66-.1,2.35.08,8.24,3.89,7.82,2.75-.3,2.65-3.77,5.23-7s9.1-4.62,12-.34C403.14,187.41,402,197.71,395.81,200.89Z" style="fill:#ffa8a7"></path><path d="M351.76,206a4.16,4.16,0,0,1,1-1.64,7,7,0,0,1,1.91-1.37,4.41,4.41,0,0,1,4.35,0,.46.46,0,0,1,.24.29.35.35,0,0,1-.23.36,19.5,19.5,0,0,1-2.22.28,7.59,7.59,0,0,0-1.91.72,5,5,0,0,0-1.51,1.2c-.33.42-.59.89-.91,1.31-.12.15-.29.41-.52.39a.43.43,0,0,1-.38-.37A2.86,2.86,0,0,1,351.76,206Z" style="fill:#b16668"></path><path d="M356.65,221.78c9.57-1.93,16.83-3.57,21.29-11,2.8-4.64,4.15-11.48,4.15-11.48s.45,8.19-2.23,14.25C377.79,218.23,372,222.45,357,225Z" style="fill:#f28f8f"></path><path d="M356.14,183.25a2.9,2.9,0,0,0,3.13,2.68,3,3,0,1,0-3.13-2.68Z" style="fill:#263238"></path><path d="M366.1,176.9l-4.88-4.54a3.49,3.49,0,0,0,.19,4.83A3.26,3.26,0,0,0,366.1,176.9Z" style="fill:#263238"></path><path d="M336.44,172.18l-5.17,4.28a3.22,3.22,0,0,0,4.64.55A3.53,3.53,0,0,0,336.44,172.18Z" style="fill:#263238"></path><path d="M334,184a2.87,2.87,0,1,0,2.57-3.25A2.91,2.91,0,0,0,334,184Z" style="fill:#263238"></path><path d="M339,193.81l9.39,4.54,1.86-18C347.1,180.17,342.72,186.36,339,193.81Z" style="fill:#f28f8f"></path></g></g><g id="freepik--Bottom--inject-79"><path d="M258.34,384c1.25-3.71,4.5-12.77,6.74-19.36-5.83-1-25.72-7.45-29.77-9.54-1.29,8.8-2,15.06-2.82,19.42-2.58,13.9-3.64,24.56-13.1,33.81a117.65,117.65,0,0,1-16.29,12.81c-6.07,4.1-10.82,6.9-12.24,9.57-2.52,4.73,4.33,15.91,29.5,10,9.56-2.23,13.09-7.2,15.95-11.14,3.46-4.79,4.59-7.7,10.56-9.69,11.84-3.94,11.93-9,11.52-14.52C257.85,398.22,254.36,395.91,258.34,384Z" style="fill:#ffa8a7"></path><path d="M361.45,382.66C348.23,405.11,319,407,301.3,397.78c-31.33-16.25-56-90.23-53.08-108.31,3-18.28,22.52-28.59,53.09-.49,16.41,15.08,25.43,30.68,37.4,51.2,5.32,2.24,23.31,13.56,27.81,26.4A46.91,46.91,0,0,1,361.45,382.66Z" style="fill:#37474f"></path><path d="M277,294.71c5.77,6.41,20.68,37.75,22.84,57.14.61,5.45,9.18,25.48,16.9,33.67,13.59,14.44,33.06,9.85,39.91,3.66-14.3,16.37-39.71,16.73-55.37,8.6-20.28-10.52-38-47-47.21-76.41Z" style="fill:#263238"></path><path d="M262.39,272.44c-9.93,2.24-20.12,13.44-25.07,48.6-4.5,31.94-6.53,50-6.53,50a47.33,47.33,0,0,0,31.42,8.27s4.64-11.58,10.31-28.58,10.24-34.42,6.13-51.23A56,56,0,0,0,262.39,272.44Z" style="fill:#37474f"></path><path d="M399.34,394.09c-23,20-46.18,22-63.86,12.87-31.32-16.25-46-122.43-34.13-124.54,13.19-2.35,24.16,5.23,35.29,17.05,15.27,16.23,26.77,30.77,41.57,52.13,5.32,2.24,27,17,31.47,29.8C406.21,386.9,404.36,388.63,399.34,394.09Z" style="fill:#455a64"></path><path d="M311.21,303.9c5.77,6.4,11.1,42.26,11.2,61.77.08,16.52,7,30.87,27,37.2,18.91,6,36.17.47,42.72-3.07C373,414.49,351.15,415.09,335.48,407c-20.27-10.52-38-47-47.2-76.41Z" style="fill:#37474f"></path><path d="M297.68,400.45c1.15-3.83,4.21-13.16,6.3-19.95-6-.87-25.66-13.21-29.85-15.22-1.17,10.84-2.39,21.79-3.09,26.25-2.23,14.25-3,25.15-12.36,34.86a119.47,119.47,0,0,1-16.24,13.53c-6.06,4.36-10.82,7.35-12.19,10.12-2.43,4.89,4.88,16.09,30.37,9.36,9.68-2.56,13.13-7.73,15.93-11.83,3.39-5,4.45-8,10.48-10.18,12-4.36,11.9-9.5,11.32-15.15C297.59,415,294,412.71,297.68,400.45Z" style="fill:#ffa8a7"></path><path d="M301.35,282.42c-10,2.13-20.85,13.27-24.39,44.85-3.59,32.06-6.53,60.25-6.53,60.25A47.14,47.14,0,0,0,301,395s5.65-15.47,11.51-32.42,10.61-34.3,6.69-51.16S301.35,282.42,301.35,282.42Z" style="fill:#455a64"></path></g><path d="M472.85,318.69c-2-6.54-5.85-15.3-15.51-34.56-10.81-21.58-15.93-30.66-25.56-42.3-7.11-8.59-22.58-11.07-22.58-11.07s-4.11,9.06-2.77,24c1.3,14.45,11,31.26,11,31.26L438,319.37c-5.69,4-17.62,11.95-23.13,11.78a10.18,10.18,0,0,1-6.39-2.14c-4.23-3-5.47-5.2-10.84-6.94a23.44,23.44,0,0,0-6-1.08c3.81,3.84,8.41,9.32,4.06,14.6-2.63,3.21-7.51,4.84-11.43,5.34a29.62,29.62,0,0,1-8.18-.3,12.23,12.23,0,0,1-6.59-3.29c-.66,1.79-.93,3.45,0,5.1a13.61,13.61,0,0,0,4.34,4.16,4.88,4.88,0,0,0,1,3.45,12.12,12.12,0,0,0,4.87,3.62,4.35,4.35,0,0,0,1.56,2.69,8.75,8.75,0,0,0,5.49,1.67c1.39.1,3.73.07,3.73.07,2.47,2.29,7.81,2.59,10.78,2.36s6.47-.66,9.52-1.2,5.92-1.85,8.86-2.78c8-2.54,18.32-6.05,18.32-6.05a283.62,283.62,0,0,0,28.2-11.36C477.93,333.31,476,328.94,472.85,318.69Z" style="fill:#ffa8a7"></path><path d="M438,319.37c5.44-3.62,18.1-7.33,26.11-1.77-7.74-7.65-19.73-5.35-27.72-.83Z" style="fill:#f28f8f"></path></g></g><g id="freepik--Hearts--inject-79"><g id="freepik--Heart--inject-79"><path d="M437.9,191l-1.67-5.76c.42-8.61-5.34-14.23-11.7-12.28s-9.08,17.88,6.53,34.06l3.16-5.18-2.52-6.52Zm16.51-11c-4.81-4.59-12.47-2.18-16,5.71l1.66,5.76-6.2,4.32,2.52,6.53-3.15,5.17C454.47,200.12,459.21,184.67,454.41,180.06Z" style="fill:#2058F2"></path><path d="M437.9,191l-1.67-5.76c.42-8.61-5.34-14.23-11.7-12.28s-9.08,17.88,6.53,34.06l3.16-5.18-2.52-6.52Zm16.51-11c-4.81-4.59-12.47-2.18-16,5.71l1.66,5.76-6.2,4.32,2.52,6.53-3.15,5.17C454.47,200.12,459.21,184.67,454.41,180.06Z" style="fill:#fff;opacity:0.5"></path></g><g id="freepik--heart--inject-79"><path d="M462.43,219.57l-2.5-2.83c-2.08-5-6.87-6.68-10-3.85s-.36,12.64,12.9,17.66l.41-3.8-3.2-3Zm6.46-10.7c-4-1.33-7.69,2.11-7.57,7.56l2.5,2.83-2.37,4.14,3.2,3-.41,3.8C474.33,220.29,472.87,210.2,468.89,208.87Z" style="fill:#2058F2"></path><path d="M462.43,219.57l-2.5-2.83c-2.08-5-6.87-6.68-10-3.85s-.36,12.64,12.9,17.66l.41-3.8-3.2-3Zm6.46-10.7c-4-1.33-7.69,2.11-7.57,7.56l2.5,2.83-2.37,4.14,3.2,3-.41,3.8C474.33,220.29,472.87,210.2,468.89,208.87Z" style="fill:#fff;opacity:0.2"></path></g></g><g id="freepik--speech-bubble--inject-79"><g id="freepik--speech-bubble--inject-79"><g id="freepik--speech-bubble--inject-79"><path d="M340.71,72.68a31.39,31.39,0,0,1,3.34,22.88L343,99a31.46,31.46,0,0,1-60.56-16.33l.85-3.5a31.47,31.47,0,0,1,57.39-6.51Z" style="fill:#fff"></path><path d="M296.33,58.81a34.15,34.15,0,0,0,29,61.58l8.27,6.65a2,2,0,0,0,3.2-1.85l-1.63-10.49a34.15,34.15,0,0,0-38.85-55.89Zm44.36,13.83a31.42,31.42,0,0,1,3.38,22.87l-1,3.46a31.46,31.46,0,0,1-60.59-16.23l.85-3.5a31.47,31.47,0,0,1,57.38-6.6Z" style="fill:#455a64"></path></g><path d="M308.7,88.46,298.52,98.51a3.41,3.41,0,0,0,4.79,4.85l10.18-10,10,10.17a3.41,3.41,0,1,0,4.86-4.79L318.34,88.53l10.18-10a3.4,3.4,0,0,0,0-4.82,3.42,3.42,0,0,0-4.82,0l-10.18,10-10-10.17a3.42,3.42,0,0,0-2.4-1,3.38,3.38,0,0,0-2.42,1,3.41,3.41,0,0,0,0,4.83Z" style="fill:#2058F2"></path></g></g></svg>